<svg xmlns="http://www.w3.org/2000/svg" xmlns:xlink="http://www.w3.org/1999/xlink" data-name="Layer 1" width="1177.8199462890625" height="725.1599731445312"><rect id="backgroundrect" width="100%" height="100%" x="0" y="0" fill="none" stroke="none"/><defs><linearGradient id="a17f7adb-619f-4eca-9f9e-ffa615402df6" x1="0.5001747012138367" y1="1.0003118515014648" x2="0.5001747012138367" y2="-0.000004477540642255917"><stop offset="0" stop-color="gray" stop-opacity="0.25"/><stop offset="0.54" stop-color="gray" stop-opacity="0.12"/><stop offset="1" stop-color="gray" stop-opacity="0.1"/></linearGradient><linearGradient id="afa9d3b0-698e-4c8c-85f1-7e162fccf1ba" x1="552.72998046875" y1="709.8400268554688" x2="622.2899780273438" y2="709.8400268554688" xlink:href="#a17f7adb-619f-4eca-9f9e-ffa615402df6"/></defs><title>printing invoices</title><g class="currentLayer" style=""><title>Layer 1</title><path d="M1177.8199998474122,465.3100018310547 a241.36,241.36 0 0 1 -7.07,58.24 q-2.38,9.620000000000001 -5.53,18.86 a224.65,224.65 0 0 1 -8.92,22.32 q-2.55,5.51 -5.39,10.82 a145.59,145.59 0 0 1 -12.17,58.49 a150.86,150.86 0 0 1 -73.18,75.4 a154,154 0 0 1 -65.41,15 H223.58999984741212 a195.67,195.67 0 0 1 -98.42,-26.3 q-6.63,-3.84 -12.92,-8.18 a195.41,195.41 0 0 1 -25.57,-21.08 a190.28,190.28 0 0 1 -28.11,-34.87 a185.86,185.86 0 0 1 -28.59,-99.23 c-18.95,-33.25 -30,-73.08 -30,-115.88 c0,-54 17.56,-103.26 46.41,-140.55 a197.6,197.6 0 0 1 19.71,-21.93 a183.42,183.42 0 0 1 22.54,-18.45 a173.94,173.94 0 0 1 20,-12 c2.89,-1.48 5.79,-2.8600000000000003 8.74,-4.15 c2.59,-1.15 5.21,-2.22 7.86,-3.23 q4.77,-1.82 9.66,-3.33 t9.65,-2.66 q7,-1.71 14.24,-2.7800000000000002 c4,-0.5900000000000001 8,-1 12,-1.32 q4.77,-0.3400000000000001 9.620000000000001,-0.4 h1.75 c3.56,0 7.1,0.14 10.61,0.38000000000000006 c0.37000000000000005,-0.7400000000000001 0.77,-1.49 1.1400000000000001,-2.23 c1.4,-2.66 2.85,-5.32 4.3100000000000005,-7.93 l0,-0.07 c0.25,-0.45 0.5,-0.9 0.7600000000000001,-1.34 c1.18,-2.13 2.41,-4.24 3.67,-6.33 c0.5800000000000001,-1 1.15,-1.94 1.7400000000000002,-2.89 c0.13,-0.23 0.26,-0.45 0.41000000000000003,-0.6800000000000002 c0.6000000000000001,-1 1.21,-2 1.83,-3 q4.63,-7.39 9.63,-14.55 c0.29000000000000004,-0.41000000000000003 0.56,-0.81 0.8500000000000001,-1.21 c0.52,-0.7400000000000001 1,-1.47 1.58,-2.2 c1.3800000000000001,-1.9300000000000002 2.8,-3.87 4.23,-5.78 c1,-1.35 2,-2.7 3.08,-4 c2.6,-3.36 5.27,-6.7 8,-10 s5.61,-6.62 8.52,-9.870000000000001 c0.4,-0.45 0.8,-0.8900000000000001 1.22,-1.34 l4.27,-4.65 h0 c0.21000000000000002,-0.22000000000000003 0.39000000000000007,-0.42000000000000004 0.5900000000000001,-0.6200000000000001 h0 c0.51,-0.55 1,-1.1 1.55,-1.6400000000000001 c2.29,-2.42 4.640000000000001,-4.8100000000000005 7,-7.17 A381.2,381.2 0 0 1 295.5899998474121,87.58000183105469 c0.53,-0.42000000000000004 1.07,-0.8200000000000001 1.6,-1.22 c2.54,-1.92 5.12,-3.81 7.7,-5.67 a406.84,406.84 0 0 1 44.41,-27.7 c1.06,-0.6000000000000001 2.14,-1.17 3.23,-1.7400000000000002 a426.26,426.26 0 0 1 42.49,-19.56 q11.86,-4.69 24.14,-8.76 c5.42,-1.77 10.86,-3.46 16.37,-5 q12.78,-3.67 25.88,-6.62 a463.35,463.35 0 0 1 78.24,-10.66 q12,-0.6300000000000001 24.27,-0.6300000000000001 a465,465 0 0 1 117,14.8 a4.22,4.22 0 0 0 3.63,1.8900000000000001 H687.9099998474121 c1.46,0.39000000000000007 2.91,0.8 4.37,1.22 q12.23,3.5300000000000002 24.11,7.69 l2,0.7200000000000001 a430.4,430.4 0 0 1 56.91,25 a412.06,412.06 0 0 1 47.65,29.44 q3.51,2.52 6.92,5.09 q4.14,-2.67 8.42,-5.09 a165.59,165.59 0 0 1 34.88,-14.86 a159.1,159.1 0 0 1 78.24,-3.06 c33.25,7.05 63.35,24.55 87.66,49.44 A204.55,204.55 0 0 1 1065.3899998474121,145.5800018310547 c0.55,0.8600000000000001 1.1,1.73 1.6300000000000001,2.6100000000000003 A220,220 0 0 1 1083.759999847412,181.5800018310547 c0.17,0.42000000000000004 0.3400000000000001,0.8300000000000001 0.49000000000000005,1.25 a231.09,231.09 0 0 1 10.3,33.35 c0.12000000000000001,0.5700000000000001 0.26,1.15 0.38000000000000006,1.73 a240.11,240.11 0 0 1 4.92,33.37 c0,0.4 0,0.81 0.08000000000000002,1.22 q0.6300000000000001,8.71 0.6400000000000001,17.61 c0,5.3 -0.18000000000000002,10.56 -0.51,15.77 c0,0.5700000000000001 -0.08000000000000002,1.17 -0.13,1.75 c-0.09000000000000002,1.52 -0.22000000000000003,3 -0.35000000000000003,4.53 a189.7,189.7 0 0 1 21.38,20.16 q4.37,4.77 8.46,9.91 a210.16,210.16 0 0 1 21.8,33.37 C1168.0999998474122,387.5800018310547 1177.8199998474122,425.12000183105465 1177.8199998474122,465.3100018310547 z" fill="#6c63ff" opacity="0.1" id="svg_1" class="selected"/><path d="M1064.8199998474122,662.1400018310546 c0,22.73 -23.56,44 -64.67,62.32 H223.58999984741212 c-35.93,0 -69.58,-13 -98.42,-35.67 c-7.25,-8.6 -11.07,-17.51 -11.07,-26.66 c0,-24.16 26.64,-46.71 72.7,-65.77 h0 l1.3,-0.52 c13,-5.33 27.53,-10.36 43.41,-15.09 c0.4,-0.12000000000000001 0.81,-0.23 1.21,-0.37000000000000005 h0 q18.9,-5.55 40.21,-10.52 c0.45,-0.1 0.8900000000000001,-0.21000000000000002 1.34,-0.29000000000000004 c5.48,-1.3 11.07,-2.51 16.78,-3.72 h0 l2.2,-0.46 c41.55,-8.620000000000001 88.78,-15.46 140,-20.1 h0.06000000000000001 q10.76,-1 21.75,-1.79 c8.15,-0.6500000000000001 16.4,-1.2 24.74,-1.71 c6.37,-0.41000000000000003 12.82,-0.7600000000000001 19.29,-1.08 a0.19000000000000003,0.19000000000000003 0 0 1 0.15000000000000002,0 c29.19,-1.47 59.35,-2.24 90.19,-2.24 c76.26,0 148.34,4.68 212.21,13 a0.52,0.52 0 0 1 0.18000000000000002,0 c9.82,1.28 19.46,2.63 28.86,4.07 c2.6900000000000004,0.42000000000000004 5.37,0.8400000000000001 8,1.27 q15.91,2.5700000000000003 31,5.43 h0 C987.9799998474122,584.7300018310547 1064.8199998474122,621.1200018310547 1064.8199998474122,662.1400018310546 z" fill="#6c63ff" opacity="0.1" id="svg_2"/><path d="M871.4999998474121,243.28000183105468 s-10.58,-4.29 -44.24,11.14 S789.3999998474121,267.9000018310547 780.6899998474121,265.5800018310547 s-13.57,-2.92 -22.91,-15.81 c0,0 -6.59,-35.71 -13,-41.25 s-33.47,3.16 -33.47,3.16 s-32.49,7.45 -38.68,-36 c0,0 4.39,-32.72 -1.59,-42.76 c0,0 12.08,5.2 32,-3.2 S738.9099998474121,138.77000183105469 738.9099998474121,138.77000183105469 s5,13 4.5,20.76 s2.66,10.67 12.16,6.92 c0,0 4.67,-6.640000000000001 -1.94,-17.62 s-11.33,-19.15 -9.49,-27.67 s7.15,-20.35 24.2,-26.26 s40.2,-7 51.31,-11.67 S833.4999998474121,75.58000183105469 833.4999998474121,75.58000183105469 s-6.84,6.85 9.27,35.9 s5.84,41.65 5.84,41.65 s-8.57,20.43 -46.41,18.77 c0,0 -36.46,1.33 -16.58,16.79 c0,0 12.73,-2.59 31.76,-8.64 s32.77,18.92 36.18,36.29 S871.4999998474121,243.28000183105468 871.4999998474121,243.28000183105468 z" fill="#6c63ff" id="svg_3"/><path d="M822.4899998474122,97.58000183105469 l0.2,-0.06000000000000001 c1.46,5.54 -14.83,27.82 -28.76,45.53 l-0.16000000000000003,-0.13 C813.4099998474121,117.9800018310547 823.6199998474121,101.87000183105468 822.4899998474122,97.58000183105469 z" fill="#444053" id="svg_4"/><path d="M794.0499998474121,142.5800018310547 l0.09000000000000002,0.22000000000000003 c-11.13,14.14 -25.12,31 -36.32,43.53 c-1.07,1.19 -2.13,2.44 -3.15,3.72 l-0.32000000000000006,-0.26 c1,-1.28 2.09,-2.54 3.16,-3.73 C768.6999998474121,173.5800018310547 782.9099998474121,156.7300018310547 794.0499998474121,142.5800018310547 z" fill="#444053" id="svg_5"/><path d="M754.6199998474121,189.47000183105467 l0.22000000000000003,0.38000000000000006 c-20.38,25.45 -21.73,65 -21.78,65.31 l-4.3,-5 C728.8099998474121,249.84000183105468 734.0999998474122,215.10000183105467 754.6199998474121,189.47000183105467 z" fill="#444053" id="svg_6"/><path d="M847.9099998474121,229.48000183105466 s-24,-12.5 -42.76,-8 S744.1999998474121,205.5800018310547 744.1999998474121,205.5800018310547 s-17.9,-7.27 -21.5,-15.56 c0,0 -12.29,-13 -13,-19.71 s-12.66,-23.62 -20.46,-24.27 " fill="none" stroke="#444053" stroke-miterlimit="10" id="svg_7"/><path d="M844.3799998474121,241.5100018310547 s-12.1,-8.16 -10.69,-17.66 " fill="none" stroke="#444053" stroke-miterlimit="10" id="svg_8"/><path d="M825.8199998474121,252.04000183105467 s-17.31,-6.28 -19,-30.92 " fill="none" stroke="#444053" stroke-miterlimit="10" id="svg_9"/><path d="M797.9099998474121,258.42000183105466 s-16.54,-13.72 -11.05,-37.7 " fill="none" stroke="#444053" stroke-miterlimit="10" id="svg_10"/><path d="M764.3199998474121,251.72000183105467 s-11,-23.1 -1.21,-38.13 " fill="none" stroke="#444053" stroke-miterlimit="10" id="svg_11"/><path d="M848.1399998474121,214.2500018310547 s-12.51,4 -9.83,10.56 " fill="none" stroke="#444053" stroke-miterlimit="10" id="svg_12"/><path d="M833.0399998474121,191.5800018310547 s-16.75,5.3100000000000005 -17.14,29 " fill="none" stroke="#444053" stroke-miterlimit="10" id="svg_13"/><path d="M809.6799998474121,186.0600018310547 s-15.25,18.82 -14.13,35.92 " fill="none" stroke="#444053" stroke-miterlimit="10" id="svg_14"/><path d="M782.9799998474122,193.4400018310547 s-15.14,14.48 -13.21,22.53 " fill="none" stroke="#444053" stroke-miterlimit="10" id="svg_15"/><path d="M773.8499998474122,188.3300018310547 s-14.2,2.54 -16.19,-2.12 " fill="none" stroke="#444053" stroke-miterlimit="10" id="svg_16"/><path d="M755.3999998474121,171.1900018310547 s7.17,9.5 9,7.37 " fill="none" stroke="#444053" stroke-miterlimit="10" id="svg_17"/><path d="M826.5199998474121,165.18000183105468 s-35.8,2.6 -43.9,-8.2 " fill="none" stroke="#444053" stroke-miterlimit="10" id="svg_18"/><path d="M747.9099998474121,123.31000183105468 s16.79,36.05 29,40.64 " fill="none" stroke="#444053" stroke-miterlimit="10" id="svg_19"/><path d="M765.4899998474122,106.14000183105469 s10.31,33.16 23.09,43.51 " fill="none" stroke="#444053" stroke-miterlimit="10" id="svg_20"/><path d="M841.5799998474121,137.81000183105468 s-27.22,11.68 -43.56,-0.14 " fill="none" stroke="#444053" stroke-miterlimit="10" stroke-width="0.75" id="svg_21"/><path d="M789.7299998474122,99.0700018310547 s6.22,24.37 14.6,30.26 " fill="none" stroke="#444053" stroke-miterlimit="10" stroke-width="0.75" id="svg_22"/><path d="M837.469999847412,110.50000183105467 s-15.3,5.8 -21,1.36 " fill="none" stroke="#444053" stroke-miterlimit="10" stroke-width="0.75" id="svg_23"/><path d="M742.2899998474121,179.15000183105468 s0,21.25 -5.78,22.76 " fill="none" stroke="#444053" stroke-miterlimit="10" id="svg_24"/><path d="M694.9999998474121,206.6800018310547 s23,2 33.57,-9.89 " fill="none" stroke="#444053" stroke-miterlimit="10" id="svg_25"/><path d="M736.3699998474121,154.0500018310547 s-5.5600000000000005,21.55 -20.9,27.36 " fill="none" stroke="#444053" stroke-miterlimit="10" id="svg_26"/><path d="M681.219999847412,183.98000183105466 s16.26,5.65 30.25,-8.74 " fill="none" stroke="#444053" stroke-miterlimit="10" id="svg_27"/><path d="M718.2799998474121,135.52000183105469 s-1.53,18.3 -11.48,26.87 " fill="none" stroke="#444053" stroke-miterlimit="10" id="svg_28"/><path d="M681.8399998474121,156.09000183105468 s13.49,0.09000000000000002 16.65,-4.3100000000000005 " fill="none" stroke="#444053" stroke-miterlimit="10" id="svg_29"/><rect x="395.2099914550781" y="225.5800018310547" width="384.20001220703125" height="193.94000244140625" fill="#33323d" id="svg_30"/><rect x="275.5299987792969" y="478.44000244140625" width="624.780029296875" height="127.66000366210938" fill="#33323d" id="svg_31"/><polygon points="423.81531262397766,511.2047019004822 744.185277223587,511.2047019004822 808.0152943134308,726.0146994590759 356.30530285835266,726.0146994590759 423.81531262397766,511.2047019004822 " fill="#fff" id="svg_32" class=""/><polygon points="257.73 402.33 257.73 468.62 257.73 482.58 257.73 606.09 377.41 606.09 377.41 488.26 798.43 488.26 798.43 606.09 918.11 606.09 918.11 482.58 918.11 468.62 918.11 402.33 257.73 402.33" fill="#504f60" id="svg_33"/><rect x="257.7300109863281" y="402.3299865722656" width="660.3800048828125" height="66.27999877929688" fill="#33323d" opacity="0.1" id="svg_34" class=""/><circle cx="882.52001953125" cy="435.4800109863281" r="9.819999694824219" fill="#8ccf4d" opacity="0.8" id="svg_35"/><circle cx="838.3300170898438" cy="435.4800109863281" r="9.819999694824219" fill="#fa5959" opacity="0.8" id="svg_36"/><rect x="409.3299865722656" y="178.92999267578125" width="355.9700012207031" height="211.1199951171875" fill="#fff" id="svg_37"/><path d="M819.4499998474121,487.0700018310547 c0.7500000000000001,8.17 -5.42,16.1 -3.62,24.1 c0.38000000000000006,1.71 1.12,3.33 1.3900000000000001,5 c0.7400000000000001,4.75 -2.09,9.25 -4.8,13.23 L789.1899998474121,563.5800018310547 a21.22,21.22 0 0 1 -3.3200000000000003,4.1 c-4.45,4 -11.11,3.54 -16.94,4.72 a29.08,29.08 0 0 0 -11.35,5 a0.7400000000000001,0.7400000000000001 0 0 0 -0.15000000000000002,1 a9.77,9.77 0 0 0 8.44,4 c0.6100000000000001,0.8 0,2 -0.8400000000000001,2.56 c-1.25,0.8600000000000001 -3,1.09 -3.21,3.21 a3.52,3.52 0 0 0 0.42000000000000004,2.13 a6.61,6.61 0 0 0 4.07,2.8200000000000003 c8,2.46 16.73,-1.86 22.75,-7.74 s10.34,-13.3 16.25,-19.29 c3.27,-3.31 7,-6.15 10.36,-9.36 c6.72,-6.4 12,-14.19 17,-22 a24.2,24.2 0 0 0 3.68,-7.49 c0.6200000000000001,-2.66 0.3400000000000001,-5.47 1.06,-8.11 c0.9400000000000001,-3.45 3.47,-6.2 5.57,-9.1 c4.13,-5.68 6.88,-12.620000000000001 6.33,-19.62 s-4.87,-13.89 -11.47,-16.27 a10.29,10.29 0 0 0 -6.43,-0.39000000000000007 c-2.71,0.8300000000000001 -4.7,3.07 -6.55,5.21 l-4.41,5.09 a12.29,12.29 0 0 0 -2.5700000000000003,3.91 a4.07,4.07 0 0 0 0.91,4.34 " fill="#fbbebe" id="svg_38"/><path d="M819.4499998474121,487.0700018310547 c0.7500000000000001,8.17 -5.42,16.1 -3.62,24.1 c0.38000000000000006,1.71 1.12,3.33 1.3900000000000001,5 c0.7400000000000001,4.75 -2.09,9.25 -4.8,13.23 L789.1899998474121,563.5800018310547 a21.22,21.22 0 0 1 -3.3200000000000003,4.1 c-4.45,4 -11.11,3.54 -16.94,4.72 a29.08,29.08 0 0 0 -11.35,5 a0.7400000000000001,0.7400000000000001 0 0 0 -0.15000000000000002,1 a9.77,9.77 0 0 0 8.44,4 c0.6100000000000001,0.8 0,2 -0.8400000000000001,2.56 c-1.25,0.8600000000000001 -3,1.09 -3.21,3.21 a3.52,3.52 0 0 0 0.42000000000000004,2.13 a6.61,6.61 0 0 0 4.07,2.8200000000000003 c8,2.46 16.73,-1.86 22.75,-7.74 s10.34,-13.3 16.25,-19.29 c3.27,-3.31 7,-6.15 10.36,-9.36 c6.72,-6.4 12,-14.19 17,-22 a24.2,24.2 0 0 0 3.68,-7.49 c0.6200000000000001,-2.66 0.3400000000000001,-5.47 1.06,-8.11 c0.9400000000000001,-3.45 3.47,-6.2 5.57,-9.1 c4.13,-5.68 6.88,-12.620000000000001 6.33,-19.62 s-4.87,-13.89 -11.47,-16.27 a10.29,10.29 0 0 0 -6.43,-0.39000000000000007 c-2.71,0.8300000000000001 -4.7,3.07 -6.55,5.21 l-4.41,5.09 a12.29,12.29 0 0 0 -2.5700000000000003,3.91 a4.07,4.07 0 0 0 0.91,4.34 " opacity="0.05" id="svg_39"/><path d="M837.0399998474121,697.3600018310547 c-5.08,3.09 -11.4,3.29 -17.3,2.56 c-1,-0.11000000000000001 -2.07,-0.18000000000000002 -2.68,0.55 c-0.8800000000000001,1.07 0.16000000000000003,2.63 1.23,3.49 a25.74,25.74 0 0 0 11.89,4.890000000000001 a80.44,80.44 0 0 0 11.620000000000001,0.77 c10.6,0.18000000000000002 21.26,0.36000000000000004 31.76,-1.17 a4.29,4.29 0 0 0 1.73,-0.51 a3.21,3.21 0 0 0 1.31,-2 c0.7300000000000001,-2.72 -0.6600000000000001,-5.66 -2.75,-7.55 s-4.78,-2.95 -7.41,-4 l-9.22,-3.59 c-2.17,-0.8500000000000001 -5.640000000000001,-3.08 -8,-2.91 C844.9099998474121,688.2400018310547 840.6999998474121,695.2200018310547 837.0399998474121,697.3600018310547 z" fill="#3f3d56" id="svg_40"/><path d="M837.0399998474121,697.3600018310547 c-5.08,3.09 -11.4,3.29 -17.3,2.56 c-1,-0.11000000000000001 -2.07,-0.18000000000000002 -2.68,0.55 c-0.8800000000000001,1.07 0.16000000000000003,2.63 1.23,3.49 a25.74,25.74 0 0 0 11.89,4.890000000000001 a80.44,80.44 0 0 0 11.620000000000001,0.77 c10.6,0.18000000000000002 21.26,0.36000000000000004 31.76,-1.17 a4.29,4.29 0 0 0 1.73,-0.51 a3.21,3.21 0 0 0 1.31,-2 c0.7300000000000001,-2.72 -0.6600000000000001,-5.66 -2.75,-7.55 s-4.78,-2.95 -7.41,-4 l-9.22,-3.59 c-2.17,-0.8500000000000001 -5.640000000000001,-3.08 -8,-2.91 C844.9099998474121,688.2400018310547 840.6999998474121,695.2200018310547 837.0399998474121,697.3600018310547 z" opacity="0.05" id="svg_41"/><path d="M843.469999847412,574.9100018310547 c-3.83,5.11 -7.8100000000000005,11 -6.86,17.33 c0.51,3.41 2.42,6.42 3.8200000000000003,9.57 a67.41,67.41 0 0 1 3.87,13.44 c1.44,6.69 2.88,13.4 3.7600000000000002,20.19 c1,7.67 -3.7,29.86 -4.14,37.59 c-0.11000000000000001,1.86 -0.32000000000000006,3.88 -1.62,5.22 c-0.51,0.53 -1.19,1 -1.4100000000000001,1.6500000000000001 a2.77,2.77 0 0 0 0.30000000000000004,1.94 c2.17,4.890000000000001 6.6,8.52 11.52,10.6 s16.89,5.65 22.23,5.84 a4.21,4.21 0 0 0 2.09,-0.28 a4,4 0 0 0 1.62,-1.85 c3.8600000000000003,-7.37 0.15000000000000002,-33.61 0.21000000000000002,-41.94 c0,-7 1.6900000000000002,-13.84 1.3900000000000001,-20.78 c-0.25,-5.57 -1.7400000000000002,-11 -2.2800000000000002,-16.56 c-0.8900000000000001,-9.11 0.78,-18.25 2.46,-27.25 c1.28,-6.890000000000001 2.56,-13.79 4.2,-20.61 c1,-4.15 2.16,-8.35 4.45,-12 c1.81,-2.87 4.27,-5.26 6.34,-8 a36,36 0 0 0 7.09,-26.38 c-0.12000000000000001,-0.92 -13.32,3.35 -14.47,3.85 a45.31,45.31 0 0 0 -12.89,8.3 c-3,2.9 -5.45,6.79 -8.13,10.05 q-5.67,6.9 -11.19,13.91 Q849.5599998474121,566.7900018310547 843.469999847412,574.9100018310547 z" fill="#464353" id="svg_42"/><path d="M843.469999847412,574.5800018310547 c-3.83,5.11 -7.8100000000000005,11 -6.86,17.34 c0.51,3.4 2.42,6.41 3.8200000000000003,9.56 a67.6,67.6 0 0 1 3.87,13.44 c1.44,6.69 2.88,13.4 3.7600000000000002,20.19 c1,7.67 -3.7,29.87 -4.14,37.6 c-0.11000000000000001,1.85 -0.32000000000000006,3.88 -1.62,5.21 c-0.51,0.53 -1.19,1 -1.4100000000000001,1.6500000000000001 a2.81,2.81 0 0 0 0.30000000000000004,2 c2.17,4.88 6.6,8.52 11.52,10.59 s16.89,4 22.23,4.17 a4.21,4.21 0 0 0 2.09,-0.28 a4,4 0 0 0 1.62,-1.85 c3.8600000000000003,-7.37 0.15000000000000002,-31.94 0.21000000000000002,-40.26 c0,-7 1.6900000000000002,-13.85 1.3900000000000001,-20.79 c-0.25,-5.57 -1.7400000000000002,-11 -2.2800000000000002,-16.56 c-0.8900000000000001,-9.11 0.78,-18.25 2.46,-27.24 c1.28,-6.9 2.56,-13.8 4.2,-20.62 c1,-4.15 2.16,-8.35 4.45,-12 c1.81,-2.8600000000000003 4.27,-5.26 6.34,-7.94 a36.07,36.07 0 0 0 7.09,-26.38 c-0.12000000000000001,-0.93 -13.32,3.34 -14.47,3.85 A45.06,45.06 0 0 0 875.1499998474121,534.5800018310547 c-3,2.91 -5.45,6.79 -8.13,10 q-5.67,6.9 -11.19,13.92 Q849.5599998474121,566.5000018310546 843.469999847412,574.5800018310547 z" opacity="0.05" id="svg_43"/><circle cx="800.780029296875" cy="440.8699951171875" r="21.530000686645508" fill="#fbbebe" id="svg_44"/><path d="M820.1599998474121,439.9700018310547 a27.94,27.94 0 0 0 17.87,12.5 l-1.62,5.87 c-2.8,10.13 -6,20.84 -13.77,27.86 c0.8500000000000001,-3.43 -0.25,-7.12 -2.19,-10.07 a38.61,38.61 0 0 0 -7.3100000000000005,-7.640000000000001 l-12.39,-10.78 a3.7,3.7 0 0 1 -0.93,-1 a3.21,3.21 0 0 1 0,-2.36 c1.58,-4.91 6.09,-8 9.74,-11.3 a34.62,34.62 0 0 0 4.9,-5.71 C816.9999998474121,433.8100018310547 818.5299998474121,437.3400018310547 820.1599998474121,439.9700018310547 z" fill="#fbbebe" id="svg_45"/><path d="M772.4099998474121,419.23000183105466 l-0.48000000000000004,-4 c3.4,0.8800000000000001 6.62,-2 8.79,-5 s4.19,-6.52 7.5,-7.76 c4,-1.52 8.28,0.91 12.12,2.91 a38.39,38.39 0 0 0 13.92,4.55 a9,9 0 0 1 2.3,0.38000000000000006 c2.5,0.8900000000000001 3.6900000000000004,4 4.05,6.87 s0.26,5.87 1.5,8.41 c0.93,1.92 2.54,3.35 3.52,5.24 c2.63,5.1 0.09000000000000002,12.06 2.87,17.06 l-6.9,-6.33 c-0.6400000000000001,-0.5800000000000001 -1.53,-1.18 -2.22,-0.6900000000000002 s-0.5900000000000001,1.23 -0.8200000000000001,1.9 c-0.6700000000000002,2 -3.12,2.56 -4.91,1.79 s-3.08,-2.47 -4.39,-4 c-3.05,-3.6 -6.68,-6.76 -11,-8.3 a14.06,14.06 0 0 0 -11.59,0.6900000000000002 c-3.22,1.82 -5.58,6.06 -9.52,6.21 c-5.41,0.2 -7.66,-9.870000000000001 -10.17,-13.85 a4.9,4.9 0 0 0 1.42,-6.11 C768.8399998474121,419.0300018310547 772.3399998474121,418.5800018310547 772.4099998474121,419.23000183105466 z" fill="#464353" id="svg_46"/><path d="M862.1499998474121,697.1900018310547 a22.76,22.76 0 0 1 -15.48,5.77 c-1.45,0 -3.46,0.28 -3.47,1.73 a2.3200000000000003,2.3200000000000003 0 0 0 0.42000000000000004,1.2 a14.23,14.23 0 0 0 8,6.26 c3.1,0.9400000000000001 6.42,0.78 9.66,0.6200000000000001 l9.45,-0.49000000000000005 c1.78,-0.1 3.5700000000000003,-0.19000000000000003 5.35,-0.41000000000000003 s3.7,-0.5900000000000001 5.5600000000000005,-0.8600000000000001 a72.75,72.75 0 0 1 13.76,-0.6500000000000001 c1.22,0.05000000000000001 2.63,0 3.39,-0.92 s0.35000000000000003,-2.58 0.07,-3.91 c-0.56,-2.74 0,-5.61 -0.52,-8.36 c-0.91,-4.83 -5.06,-8.52 -9.64,-10.27 c-4.25,-1.62 -11.79,-3.47 -15.82,-0.78 C868.5599998474121,689.0200018310547 865.9599998474121,693.7400018310547 862.1499998474121,697.1900018310547 z" fill="#3f3d56" id="svg_47"/><path d="M871.5099998474121,535.5800018310547 c0.8400000000000001,4 4.67,7 4.79,11 c0.09000000000000002,3.24 -2.23,6 -3.89,8.75 a58,58 0 0 0 -4,9 a137.6,137.6 0 0 1 -11.68,23.15 c-2.22,3.51 -4.7,7.33 -4.19,11.46 a17.17,17.17 0 0 0 2,5.48 l6.65,13.21 a38,38 0 0 1 3.4,8.35 c0.5700000000000001,2.51 0.6300000000000001,5.11 1,7.67 c1.05,8.1 4.85,16.26 2.6100000000000003,24.11 c-0.2,0.6800000000000002 -0.9,1.5 -1.4300000000000002,1 c2.19,4.1 4,8.24 3.79,12.89 c-0.09000000000000002,2.44 -0.8400000000000001,5 0.07,7.26 a7.890000000000001,7.890000000000001 0 0 1 1,2.8600000000000003 c0,0.6600000000000001 -0.31000000000000005,1.29 -0.38000000000000006,2 c-0.18000000000000002,1.87 1.53,3.43 3.3200000000000003,4 s3.72,0.55 5.52,1.09 c3.47,1 5.93,4 8.9,6.08 a18.71,18.71 0 0 0 10.22,3.33 a2.56,2.56 0 0 0 1.5,-0.30000000000000004 a2.44,2.44 0 0 0 0.8400000000000001,-1.83 a10.14,10.14 0 0 0 -3.66,-8.81 a4.07,4.07 0 0 1 -1.35,-1.42 a3.4,3.4 0 0 1 -0.13,-1.59 a118.71,118.71 0 0 0 -0.39000000000000007,-21.82 a33,33 0 0 1 -0.35000000000000003,-6.94 c0.2,-1.9300000000000002 0.78,-3.85 0.56,-5.78 s-1.19,-3.67 -1.77,-5.53 c-1,-3.3 -0.7400000000000001,-6.84 -0.8500000000000001,-10.3 c-0.18000000000000002,-6 -1.55,-11.88 -2.92,-17.72 c-0.53,-2.29 -1.13,-4.7 -2.7600000000000002,-6.4 c-1.3800000000000001,-1.44 -3.6100000000000003,-2.83 -3.09,-4.75 a5.5,5.5 0 0 1 1.26,-1.8900000000000001 a7.59,7.59 0 0 0 1.59,-5.79 a2.58,2.58 0 0 0 3,-1.4 c10.81,-5.09 19.55,-15.29 23.4,-26.61 a8.84,8.84 0 0 1 1,-2.37 c1,-1.4 2.74,-2 4.28,-2.7800000000000002 c4.84,-2.43 8.19,-7 11.26,-11.47 c1.79,-2.6 3.5700000000000003,-5.28 4.34,-8.33 a27.33,27.33 0 0 0 0.6000000000000001,-6 l0.27,-10.42 a5.61,5.61 0 0 0 -0.2,-2 a4.83,4.83 0 0 0 -1.12,-1.6500000000000001 a20.07,20.07 0 0 0 -11,-6 c-2.84,-0.51 -5.74,-0.41000000000000003 -8.61,-0.6500000000000001 c-5.57,-0.46 -11.07,-2.18 -16.64,-1.78 c-8.76,0.6400000000000001 -16.55,6.71 -20.68,14.46 C876.1399998474121,533.1700018310547 874.6199998474121,535.5800018310547 871.5099998474121,535.5800018310547 z" fill="#464353" id="svg_48"/><path d="M822.9099998474121,467.8200018310547 a11.43,11.43 0 0 1 -0.6300000000000001,4.74 c-0.6800000000000002,1.46 -2.4,2.59 -3.89,2 c0.45,-1 -0.7500000000000001,-2.19 -1.86,-2.06 a3.46,3.46 0 0 0 -2.46,2.09 a7.76,7.76 0 0 0 -0.7100000000000001,4.8100000000000005 c0.35000000000000003,2 1.53,4 1.22,6 c-0.25,1.7000000000000002 -1.5,3.4 -0.8300000000000001,5 a8.1,8.1 0 0 0 1.6,1.92 a5.42,5.42 0 0 1 -0.5700000000000001,7.45 l16.78,0.33000000000000007 c-0.6100000000000001,2.81 0.6400000000000001,5.68 2.08,8.17 a51.46,51.46 0 0 0 38.35,25 a3.35,3.35 0 0 0 -0.8,5.11 c1.36,1.35 3.67,1.18 5.38,0.30000000000000004 s3.06,-2.33 4.62,-3.45 a14.11,14.11 0 0 1 9.48,-2.56 c2.1,0.2 4.14,0.8800000000000001 6.25,1 c6.22,0.33000000000000007 11.56,-4.14 17.51,-6 c4.36,-1.34 9.29,-1.34 13,-4.06 c1.58,-1.17 2.87,-3.09 2.41,-5 a8.29,8.29 0 0 0 -1.81,-2.94 c-2.11,-2.72 -3.35,-6 -4.85,-9.09 a54.48,54.48 0 0 0 -12.13,-16.24 a108.92,108.92 0 0 0 -12,-9.13 a21.13,21.13 0 0 0 -3.26,-2 a34.11,34.11 0 0 1 -4.46,-1.81 c-2,-1.24 -3.11,-3.43 -4.62,-5.2 c-3.33,-3.88 -8.44,-5.67 -12.54,-8.72 c-2.75,-2 -5.17,-4.74 -8.46,-5.73 c-1.59,-0.48000000000000004 -3.29,-0.52 -4.890000000000001,-1 c-3.62,-1.1 -6.26,-4.32 -9.82,-5.62 c-2.8200000000000003,-1 -5.92,-0.7600000000000001 -8.9,-1.13 a20.56,20.56 0 0 1 -9.13,-3.47 a11,11 0 0 0 -3,-1.7200000000000002 c-4.49,-1.37 -4.86,7 -5.28,9.91 C824.0199998474121,459.1700018310547 822.9099998474121,463.4500018310547 822.9099998474121,467.8200018310547 z" fill="#6c63ff" id="svg_49"/><path d="M827.2899998474121,495.9200018310547 c0.7500000000000001,8.17 -5.42,16.09 -3.62,24.1 c0.38000000000000006,1.71 1.12,3.33 1.3900000000000001,5 c0.7500000000000001,4.75 -2.09,9.25 -4.8,13.22 l-23.23,34.1 a21.22,21.22 0 0 1 -3.3200000000000003,4.1 c-4.45,4 -11.11,3.54 -16.94,4.72 a29.15,29.15 0 0 0 -11.35,5 a0.7400000000000001,0.7400000000000001 0 0 0 -0.15000000000000002,1 a9.74,9.74 0 0 0 8.44,4 c0.6100000000000001,0.81 0,2 -0.8400000000000001,2.56 c-1.25,0.8700000000000001 -3,1.1 -3.21,3.22 a3.52,3.52 0 0 0 0.42000000000000004,2.13 a6.65,6.65 0 0 0 4.07,2.8200000000000003 c8,2.46 16.73,-1.86 22.75,-7.74 s10.34,-13.3 16.26,-19.29 c3.27,-3.31 7,-6.15 10.35,-9.36 c6.73,-6.4 11.95,-14.19 17,-22 a24.31,24.31 0 0 0 3.68,-7.49 c0.6200000000000001,-2.66 0.3400000000000001,-5.47 1.06,-8.11 c0.9400000000000001,-3.45 3.47,-6.21 5.57,-9.1 c4.13,-5.68 6.88,-12.620000000000001 6.33,-19.62 s-4.87,-13.89 -11.47,-16.27 a10.22,10.22 0 0 0 -6.43,-0.39000000000000007 c-2.7,0.8300000000000001 -4.7,3.07 -6.55,5.21 l-4.41,5.09 a12.09,12.09 0 0 0 -2.56,3.91 a4.05,4.05 0 0 0 0.9,4.33 " fill="#fbbebe" id="svg_50"/><path d="M839.0499998474121,462.35000183105467 c-3.06,0.18000000000000002 -6.42,0.48000000000000004 -8.58,2.66 a12.33,12.33 0 0 0 -2.16,3.38 c-2.09,4.27 -4.13,8.73 -4.28,13.48 c-0.13,3.8 1,7.51 1.55,11.27 c0.48000000000000004,3.12 -0.7400000000000001,6.3 -1,9.46 c3.79,-1.1600000000000001 8.79,-2.74 12.23,-4.7 a40.48,40.48 0 0 1 7.15,-3.72 c3.6500000000000004,-1.21 9.78,0.8700000000000001 13.22,2.58 c0.19000000000000003,-2.44 -1.6300000000000001,-6.67 -1.44,-9.11 a10.31,10.31 0 0 1 0.54,-3 a18.44,18.44 0 0 1 1.83,-2.91 a11.92,11.92 0 0 0 -1.07,-14 c-3.07,-3.46 -7.890000000000001,-4.76 -12.48,-5.29 a54.12,54.12 0 0 0 -8.72,-0.31000000000000005 " fill="#6c63ff" id="svg_51"/><path d="M385.9999998474121,392.3900018310547 l-19.72,-28.6 s-0.37000000000000005,-7.08 -1.6600000000000001,-8.73 s-0.28,-5.33 -0.28,-5.33 s1.3900000000000001,-2 0.19000000000000003,-2.21 s-0.19000000000000003,-4.69 -0.19000000000000003,-4.69 l-0.09000000000000002,-7.17 s1.11,-6.9 0.19000000000000003,-8.55 a2.71,2.71 0 0 1 0.09000000000000002,-2.95 s1.1,-3.95 0,-5 s-0.8300000000000001,-7.17 -0.56,-12.05 s-1.9300000000000002,-7.63 -1.9300000000000002,-8.36 s-7.28,-7.91 -7.28,-8.56 s-4.61,-3.31 -7.38,-4 s-4.14,-1.29 -4.05,-1.6600000000000001 s-4.33,-1.83 -4.33,-1.83 s-3.87,-0.28 -5.35,-2.21 s-6,-2.49 -6.11,-2.51 l-0.09000000000000002,-0.38000000000000006 c0,-0.14 -0.05000000000000001,-0.28 -0.08000000000000002,-0.42000000000000004 a19.34,19.34 0 0 0 1,-1.8 l0.26,-0.56 a7.82,7.82 0 0 0 4.53,-1.4100000000000001 a6.13,6.13 0 0 0 2.21,-4.41 a9.64,9.64 0 0 0 -1.08,-4.9 c-0.81,-1.6500000000000001 -2,-3.37 -1.58,-5.17 c0.18000000000000002,-0.77 0.6400000000000001,-1.45 0.8800000000000001,-2.21 a5.84,5.84 0 0 0 -0.6600000000000001,-4.36 c-0.7000000000000001,-1.33 -1.6700000000000002,-2.51 -2.45,-3.8 a15,15 0 0 1 -1.9500000000000002,-5.38 a8.29,8.29 0 0 0 -0.7100000000000001,-2.93 a5.47,5.47 0 0 0 -1.62,-1.6300000000000001 a16.18,16.18 0 0 0 -9.91,-3 c-2.51,0.08000000000000002 -5,0.7600000000000001 -7.5,0.45 a26.87,26.87 0 0 1 -4.38,-1.1400000000000001 c-3.09,-0.92 -6.66,-1.29 -9.35,0.48000000000000004 s-3.7600000000000002,5.25 -5.59,8 c-1.61,2.4 -4,4.42 -5.2,7 c0,0 0,-0.1 0,-0.14 a8.38,8.38 0 0 0 -0.6900000000000002,1.85 a13.18,13.18 0 0 0 0.41000000000000003,6.1 a4.24,4.24 0 0 0 1.49,2.72 c0.91,0.5900000000000001 2.16,0.45 3.22,0.6400000000000001 l-0.12000000000000001,0.52 A21.05,21.05 0 0 0 303.1899998474121,286.5800018310547 c0,0.19000000000000003 0,0.37000000000000005 0,0.56 a13.4,13.4 0 0 1 -0.1,1.58 h0 s-9.27,-1.9100000000000001 -11.76,-0.6200000000000001 s-7.37,2.3 -8.11,3 s-2.58,0.19000000000000003 -4.24,4.51 s-1.84,8.73 -4,10.76 s-3.22,3.4 -3.3200000000000003,4.87 s0.28,1.84 -0.55,2.3 s-2,2.39 -1.6600000000000001,3.13 a2.6100000000000003,2.6100000000000003 0 0 1 -1,2.75 a3.06,3.06 0 0 0 -1.29,2.7600000000000002 s-0.56,2 -1.85,2.49 s-2.12,3.49 -2.12,3.49 l-4.18,4.8 l-8.28,-9.16 a3.5,3.5 0 0 0 -4.93,-0.25 l-4.07,3.66 a8.06,8.06 0 0 0 -4.07,2.42 a10.84,10.84 0 0 0 -2.11,3.14 l-2.22,2 a5.67,5.67 0 0 0 -0.5800000000000001,6.25 l5.3100000000000005,5.87 l0,0.05000000000000001 a9.4,9.4 0 0 0 -5.13,2.09 c-7.92,7 -8,13.43 -6.82,16.37 s11.24,14.25 11.24,14.25 s5.84,7.59 14.27,11.620000000000001 h0 l-0.06000000000000001,0.07 a6.94,6.94 0 0 0 -0.49000000000000005,0.5700000000000001 l-0.14,0.18000000000000002 l-0.13,0.18000000000000002 l-0.15000000000000002,0.22000000000000003 a1.7400000000000002,1.7400000000000002 0 0 0 -0.11000000000000001,0.18000000000000002 l-0.16000000000000003,0.26 a1.62,1.62 0 0 0 -0.1,0.18000000000000002 c-0.07,0.12000000000000001 -0.13,0.24000000000000002 -0.19000000000000003,0.36000000000000004 a1.34,1.34 0 0 0 -0.06000000000000001,0.12000000000000001 c-0.08000000000000002,0.16000000000000003 -0.16000000000000003,0.32000000000000006 -0.23,0.5 l-0.08000000000000002,0.18000000000000002 c-0.05000000000000001,0.12000000000000001 -0.09000000000000002,0.24000000000000002 -0.14,0.37000000000000005 a2.25,2.25 0 0 0 -0.08000000000000002,0.24000000000000002 l-0.12000000000000001,0.36000000000000004 a2,2 0 0 0 -0.08000000000000002,0.26 c0,0.13 -0.08000000000000002,0.26 -0.11000000000000001,0.4 s-0.05000000000000001,0.16000000000000003 -0.07,0.25 s-0.1,0.43000000000000005 -0.14,0.6600000000000001 c0,0.08000000000000002 0,0.17 -0.05000000000000001,0.26 s-0.05000000000000001,0.31000000000000005 -0.08000000000000002,0.47000000000000003 s0,0.22000000000000003 0,0.3400000000000001 l-0.06000000000000001,0.45 l0,0.36000000000000004 c0,0.17 0,0.3400000000000001 -0.05000000000000001,0.52 s0,0.21000000000000002 0,0.32000000000000006 c0,0.29000000000000004 0,0.5800000000000001 0,0.8900000000000001 c-0.18000000000000002,10.76 0.45,12.32 0.45,12.32 a6,6 0 0 0 4.890000000000001,3.67 a6.1,6.1 0 0 0 1.57,-0.08000000000000002 c4.8,-0.8300000000000001 16,-2.7600000000000002 20,-2 c2.39,0.44000000000000006 6.8,-0.22000000000000003 9.94,-0.81 l0.8300000000000001,-0.16000000000000003 l0.5700000000000001,1.83 l1.82,-0.5 l1.55,0.8900000000000001 l1,0.5700000000000001 c1.82,6.16 9.2,4.06 9.2,4.06 l1.75,1 l17.79,0.46 a35.7,35.7 0 0 0 6.3,3 a4.84,4.84 0 0 0 0.8900000000000001,0.2 a39.57,39.57 0 0 0 5,0.09000000000000002 c1.36,0 2.41,-0.09000000000000002 2.41,-0.09000000000000002 s-0.18000000000000002,-4.83 -0.44000000000000006,-10.24 a145.13,145.13 0 0 0 16.48,-1.35 c9.5,-1.6600000000000001 13.46,-10.3 14.92,-14.92 a43.61,43.61 0 0 1 0.93,5.73 a41.57,41.57 0 0 0 1.48,5 a16.67,16.67 0 0 0 2,3.68 c7,-2.39 2.7600000000000002,-6 1.29,-7.54 s1,-2.85 1,-2.85 s1.94,-1.29 1.75,-2.48 s-0.28,-2.48 6,-2.39 S385.9999998474121,392.3900018310547 385.9999998474121,392.3900018310547 zM288.6799998474121,333.6800018310547 c0.08000000000000002,0.52 1,6.19 1.7400000000000002,7.68 a10,10 0 0 1 0.21000000000000002,3 c-3.71,-0.30000000000000004 -7.58,-0.46 -7.58,-0.46 a0.9400000000000001,0.9400000000000001 0 0 1 0.2,0.47000000000000003 l-0.5900000000000001,-0.13 l-0.8400000000000001,-0.2 l6.84,-10.41 zm-13.56,21.56 l6.43,1 l0.54,0.08000000000000002 a21,21 0 0 0 -0.33000000000000007,3 c0,0.1 0.14,0.21000000000000002 0.35000000000000003,0.3400000000000001 a7.91,7.91 0 0 0 -0.12000000000000001,1.53 c0.1,0.5 3.1,1.6 6.55,2.51 c-0.05000000000000001,0.19000000000000003 -0.09000000000000002,0.37000000000000005 -0.14,0.53 h0 c-3.05,-1.6 -7.84,-2.35 -8.39,-3.54 s-16.87,-6.890000000000001 -16.87,-6.890000000000001 l-1.62,-0.81 l4.29,0.81 l1.18,-0.12000000000000001 A63.73,63.73 0 0 0 275.1199998474121,355.2400018310547 z" fill="url(#a17f7adb-619f-4eca-9f9e-ffa615402df6)" id="svg_52"/><path d="M365.0199998474121,396.3900018310547 s-2.55,15.44 -15.52,17.72 s-56.27,1.83 -56.27,1.83 s-24.76,-3.5700000000000003 -33.71,-24.48 s-14.71,-29.24 -7,-29.6 s49.06,14 51.43,14.16 S367.3099998474121,344.23000183105466 365.0199998474121,396.3900018310547 z" fill="#65617d" id="svg_53"/><path d="M365.0199998474121,396.3900018310547 s-2.55,15.44 -15.52,17.72 s-56.27,1.83 -56.27,1.83 s-24.76,-3.5700000000000003 -33.71,-24.48 s-14.71,-29.24 -7,-29.6 s49.06,14 51.43,14.16 S367.3099998474121,344.23000183105466 365.0199998474121,396.3900018310547 z" opacity="0.05" id="svg_54"/><path d="M248.9099998474121,413.5800018310547 a5.91,5.91 0 0 0 4.84,3.6500000000000004 a6.62,6.62 0 0 0 1.57,-0.09000000000000002 c4.75,-0.8200000000000001 15.89,-2.74 19.82,-2 c2.36,0.43000000000000005 6.73,-0.22000000000000003 9.84,-0.8 c2.07,-0.39000000000000007 3.59,-0.7600000000000001 3.59,-0.7600000000000001 s-3.66,-12.15 -4.11,-12.51 s-16.45,-10 -16.45,-10 l-12.66,-0.91 h0 a6.69,6.69 0 0 0 -4.3,2.52 c-1.33,1.62 -2.48,4.27 -2.56,8.620000000000001 C248.2799998474121,412.0100018310547 248.9099998474121,413.5800018310547 248.9099998474121,413.5800018310547 z" fill="#3f3d56" id="svg_55"/><path d="M248.9099998474121,413.5800018310547 a5.91,5.91 0 0 0 4.84,3.6500000000000004 a53.76,53.76 0 0 1 -3.44,-5 l0.07,-8.86 a15.64,15.64 0 0 1 5,-13.15 h0 s-6.67,0.45 -6.86,11.14 S248.9099998474121,413.5800018310547 248.9099998474121,413.5800018310547 z" opacity="0.05" id="svg_56"/><path d="M303.81999984741213,394.2000018310547 l11.79,-9.23 l18.54,-18.27 l-5,-0.23 c-0.7500000000000001,0.48000000000000004 -2.85,2 -2.93,3.8200000000000003 c-0.09000000000000002,2.23 -5,0.16000000000000003 -7.57,1.4300000000000002 s-15.07,17.3 -17.26,17.19 s-3.93,-1.11 -4.85,0.45 l-0.06000000000000001,0.1 z" opacity="0.1" id="svg_57"/><path d="M251.01999984741212,392.7000018310547 c0.42000000000000004,0.2 0.8500000000000001,0.4 1.28,0.5800000000000001 c8.95,3.84 20,11.88 20.83,13.34 c0.5,0.8900000000000001 6.91,4.78 11.85,7.7 c2.07,-0.39000000000000007 3.59,-0.7600000000000001 3.59,-0.7600000000000001 s-3.66,-12.15 -4.11,-12.51 s-16.45,-10 -16.45,-10 l-12.66,-0.91 h0 A6.69,6.69 0 0 0 251.01999984741212,392.7000018310547 z" opacity="0.1" id="svg_58"/><path d="M226.17999984741212,366.5200018310547 c1.18,2.92 11.14,14.16 11.14,14.16 s6.3,8.22 15.26,12 s20,11.88 20.82,13.34 c0.53,0.9400000000000001 7.67,5.24 12.69,8.19 l1.13,0.6600000000000001 l2.49,1.45 l1.32,0.7500000000000001 s3.06,-2.45 6.11,-4.92 s6,-4.890000000000001 6,-5 s1.28,-3.38 1,-3.56 s-0.77,-1.36 -1.9300000000000002,-2.83 a12.88,12.88 0 0 0 -4.65,-3.84 a13.25,13.25 0 0 1 -6,-6.29 s-0.4,-0.29000000000000004 -1,-0.6800000000000002 a12.38,12.38 0 0 0 -4.1,-1.83 c-2,-0.25 -5.76,-4.36 -5.76,-4.36 a11.18,11.18 0 0 1 -3.56,-3.74 c-1,-2 -15.13,-11.74 -16.44,-12.64 l34.34,22.06 l8.22,5.28 l11.79,-9.22 l18.54,-18.27 l-6.12,-0.28 c-9,-0.39000000000000007 -25,-1 -27,-0.54 a15.69,15.69 0 0 1 -5,0.33000000000000007 s-4.5600000000000005,0.2 -7.58,-1.3900000000000001 s-7.77,-2.34 -8.32,-3.52 s-16.71,-6.84 -16.71,-6.84 s-22,-11.69 -29.87,-4.75 S224.98999984741212,363.5800018310547 226.17999984741212,366.5200018310547 z" fill="#65617d" id="svg_59"/><path d="M297.1499998474121,299.4700018310547 l2.83,9.41 l3.66,21.19 l13.43,0.91 L320.9099998474121,324.5800018310547 l3.88,-6.44 s2.42,-8.56 4.16,-16.84 c1.53,-7.33 2.54,-14.45 0.8700000000000001,-15.22 c-1.49,-0.6800000000000002 -2.46,-3.15 -3.1,-5.8100000000000005 c-0.08000000000000002,-0.32000000000000006 -0.15000000000000002,-0.6600000000000001 -0.21000000000000002,-1 a52.66,52.66 0 0 1 -0.9,-6.8100000000000005 s-28.13,-1.46 -24.2,10.14 a18.51,18.51 0 0 1 1.06,6.17 c0,0.54 0,1.07 -0.1,1.57 A13.15,13.15 0 0 1 297.1499998474121,299.4700018310547 z" fill="#ee8e9e" id="svg_60"/><path d="M291.3099998474121,297.92000183105466 l1,16 l2.2800000000000002,13.61 l2.56,6.3100000000000005 l2.29,34.48 s22,2.55 27.38,-0.05000000000000001 a2.2800000000000002,2.2800000000000002 0 0 0 1,-0.7500000000000001 c6.47,-9.77 4.35,-38.07 4.35,-38.07 l2.46,-18.27 l-1.6400000000000001,-9.48 l-4,-0.42000000000000004 l-3.06,-0.33000000000000007 s-0.6900000000000002,0.8500000000000001 -1.6900000000000002,2.17 c-2.71,3.5700000000000003 -7.69,10.61 -7.35,13.54 c0.45,4 -0.55,8.13 -2.11,8.77 s-2.83,1.7400000000000002 -3.1,0.6400000000000001 a4.91,4.91 0 0 1 -0.28,-2.92 c0.28,-1.56 -1.19,-6.3100000000000005 -1.19,-6.3100000000000005 s-2.46,-5.57 -2.2800000000000002,-7.94 s-0.27,-5.12 -1,-5.76 s-1.7400000000000002,-1.28 -0.92,-4.2 s-3.6,-8.61 -3.6,-8.61 z" fill="#e3e8f4" id="svg_61"/><path d="M320.3999998474121,337.8400018310547 l0.92,27.31 l5.27,2.93 a2.37,2.37 0 0 0 1,-0.7600000000000001 c6.47,-9.77 4.35,-38.07 4.35,-38.07 l2.47,-18.27 l-1.6500000000000001,-9.48 l-4,-0.42000000000000004 c1.54,-7.33 2.54,-14.44 0.8700000000000001,-15.22 c-1.49,-0.6800000000000002 -2.46,-3.15 -3.09,-5.8 h0 l-2.85,19.32 s0.24000000000000002,1.7400000000000002 0.32000000000000006,3.54 a10,10 0 0 1 -0.23,3.4 a11.35,11.35 0 0 0 -0.18000000000000002,4.57 c-1.6500000000000001,2.9 -2.47,8.28 -2.87,13.47 C320.1899998474121,331.2600018310547 320.3999998474121,337.8400018310547 320.3999998474121,337.8400018310547 z" opacity="0.1" id="svg_62"/><path d="M326.6199998474121,279.5800018310547 s4.61,0.5700000000000001 6.07,2.49 s5.3,2.2 5.3,2.2 s4.38,1.46 4.29,1.82 s1.28,0.92 4,1.6500000000000001 s7.3100000000000005,3.38 7.3100000000000005,4 s7.21,7.76 7.21,8.49 s2.19,3.47 1.92,8.31 s-0.55,11 0.55,12 s0,4.93 0,4.93 a2.7,2.7 0 0 0 -0.09000000000000002,2.93 c0.91,1.6400000000000001 -0.19000000000000003,8.49 -0.19000000000000003,8.49 l0.1,7.13 s-1,4.47 0.18000000000000002,4.66 s-0.18000000000000002,2.19 -0.18000000000000002,2.19 s-1,3.6500000000000004 0.27,5.3 s1.6400000000000001,8.67 1.6400000000000001,8.67 l19.55,28.41 s0.28,5.21 -5.93,5.12 s-6.13,1.19 -5.94,2.37 s-1.7400000000000002,2.47 -1.7400000000000002,2.47 s-2.46,1.28 -1,2.83 s5.66,5.12 -1.28,7.49 a16.54,16.54 0 0 1 -2,-3.6500000000000004 a41.46,41.46 0 0 1 -1.46,-4.93 s-0.6400000000000001,-6.95 -1.92,-7.86 s-1.1,-5.3 -1.1,-5.3 s1.83,-3.56 -0.7300000000000001,-5 s-39.64,-22 -39.64,-22 L320.9099998474121,337.4700018310547 s-0.6400000000000001,-20.19 3.2,-26.95 a11.35,11.35 0 0 1 0.18000000000000002,-4.57 c0.6400000000000001,-1.6400000000000001 -0.09000000000000002,-6.94 -0.09000000000000002,-6.94 z" fill="#3f3d56" id="svg_63"/><path d="M302.6799998474121,290.5800018310547 s-9.18,-1.8900000000000001 -11.65,-0.6100000000000001 s-7.3,2.2800000000000002 -8,3 s-2.55,0.19000000000000003 -4.2,4.48 s-1.82,8.68 -3.93,10.69 s-3.19,3.38 -3.2800000000000002,4.84 s0.27,1.83 -0.55,2.2800000000000002 s-2,2.38 -1.6500000000000001,3.11 s19,16.81 19,16.81 s0.92,6.12 1.7400000000000002,7.67 s-0.91,22.93 -2.74,24.39 S299.7099998474121,368.5800018310547 299.7099998474121,368.5800018310547 s0.6400000000000001,-14 1.19,-14.76 s-0.37000000000000005,-15.71 -0.37000000000000005,-15.71 s-0.09000000000000002,-12.79 1.1,-16.17 s1,-14.620000000000001 1,-14.620000000000001 s1.05,-6.74 2.33,-8.31 S302.6799998474121,290.5800018310547 302.6799998474121,290.5800018310547 z" opacity="0.1" id="svg_64"/><path d="M302.4099998474121,290.3100018310547 s-9.18,-1.8900000000000001 -11.65,-0.6200000000000001 s-7.3100000000000005,2.29 -8,3 s-2.56,0.18000000000000002 -4.2,4.48 s-1.83,8.67 -3.93,10.68 s-3.2,3.38 -3.29,4.84 s0.28,1.83 -0.55,2.29 s-2,2.37 -1.6400000000000001,3.1 s19,16.81 19,16.81 s0.91,6.12 1.7400000000000002,7.67 s-0.92,22.93 -2.75,24.39 s12.34,1.33 12.34,1.33 s0.6400000000000001,-14 1.18,-14.75 s-0.36000000000000004,-15.72 -0.36000000000000004,-15.72 s-0.09000000000000002,-12.78 1.1,-16.16 s1.05,-14.620000000000001 1.05,-14.620000000000001 s1.05,-6.74 2.33,-8.31 S302.4099998474121,290.3100018310547 302.4099998474121,290.3100018310547 z" fill="#3f3d56" id="svg_65"/><path d="M301.44999984741213,282.5800018310547 a18.51,18.51 0 0 1 1.06,6.17 a21,21 0 0 0 24,-9.5 a52.66,52.66 0 0 1 -0.9,-6.8100000000000005 S297.5199998474121,270.9700018310547 301.44999984741213,282.5800018310547 z" opacity="0.1" id="svg_66"/><path d="M287.5599998474121,268.1400018310547 a20.93,20.93 0 1 0 0.46,-4.35 A20.71,20.71 0 0 0 287.5599998474121,268.1400018310547 z" fill="#ee8e9e" id="svg_67"/><path d="M274.12999984741214,316.5800018310547 l-5,1.55 a2.59,2.59 0 0 1 -1,2.74 a3,3 0 0 0 -1.27,2.74 s-0.55,2 -1.83,2.47 s-2.1,3.47 -2.1,3.47 l-4.2,4.84 s-1.56,1.28 -1.28,1.92 s-1.6500000000000001,0.8200000000000001 -1.6500000000000001,0.8200000000000001 l1,16.26 l8.68,1.6500000000000001 l5.39,-0.55 l4.38,-1.6400000000000001 l3.84,-2.29 l1.73,-4.47 l7.68,-11.7 z" fill="#3f3d56" id="svg_68"/><path d="M257.0499998474121,338.3800018310547 s-11.14,-16.07 -19.46,-7.4 s3.38,22.75 6.12,22.29 s15.81,-1.19 15.81,-1.19 z" fill="#ee8e9e" id="svg_69"/><rect x="441.4700012207031" y="245.02999877929688" width="58.33000183105469" height="45.290000915527344" rx="1.5399999618530273" transform="rotate(27.040000915527344 211.1100006103517,-158.77999877929693) " fill="#3f3d56" id="svg_70"/><rect x="446.19000244140625" y="249.0900115966797" width="49.029998779296875" height="36.95000076293945" transform="rotate(27.040000915527344 211.10000610351562,-158.83000183105472) " fill="#6c63ff" id="svg_71"/><circle cx="224.97000122070312" cy="326.9599914550781" r="0.800000011920929" fill="#e6e8ec" id="svg_72"/><circle cx="272.239990234375" cy="351.17999267578125" r="1.3300000429153442" fill="#e6e8ec" id="svg_73"/><path d="M249.83999984741212,341.7600018310547 c-0.1,12.06 24.84,14.620000000000001 24.84,14.620000000000001 l6.37,1 l2.8600000000000003,0.45 l1.19,-11.78 s-1.31,-0.2 -2.94,-0.5800000000000001 c-2.42,-0.56 -5.55,-1.53 -6.2,-2.9 C274.9099998474121,340.3000018310547 249.9099998474121,329.7000018310547 249.83999984741212,341.7600018310547 z" fill="#ee8e9e" id="svg_74"/><path d="M288.0199998474121,263.79000183105467 a2.48,2.48 0 0 1 1.53,0.6800000000000002 c0.7000000000000001,0.7500000000000001 0.7400000000000001,2.08 1.6600000000000001,2.54 a1.92,1.92 0 0 0 1.09,0.12000000000000001 c2.43,-0.3400000000000001 3.83,-3.08 6.17,-3.84 a6.19,6.19 0 0 1 4.08,0.35000000000000003 a3.19,3.19 0 0 1 1.36,0.8700000000000001 c0.78,1 0.23,2.5 0.5900000000000001,3.72 c0.5,1.7000000000000002 2.5300000000000002,2.37 4.28,2.59 s3.73,0.35000000000000003 4.9,1.6700000000000002 a4.44,4.44 0 0 1 0.8700000000000001,3.54 a2.7600000000000002,2.7600000000000002 0 0 0 0,1.31 c0.48000000000000004,1.37 2.85,1.1600000000000001 3.47,0.08000000000000002 c0.46,-0.79 0.32000000000000006,-1.44 1.3900000000000001,-1.6600000000000001 a4.53,4.53 0 0 1 2.23,0.39000000000000007 a16.54,16.54 0 0 0 5.79,0.8900000000000001 a20.92,20.92 0 1 0 -39.4,-13.25 z" opacity="0.1" id="svg_75"/><path d="M314.5399998474121,276.79000183105467 a2.77,2.77 0 0 1 0,-1.31 a4.41,4.41 0 0 0 -0.8700000000000001,-3.5300000000000002 c-1.17,-1.33 -3.14,-1.45 -4.9,-1.6800000000000002 s-3.7800000000000002,-0.8900000000000001 -4.28,-2.59 c-0.36000000000000004,-1.22 0.19000000000000003,-2.71 -0.5900000000000001,-3.71 a3,3 0 0 0 -1.36,-0.8700000000000001 a6.2,6.2 0 0 0 -4.08,-0.36000000000000004 c-2.34,0.7600000000000001 -3.74,3.5 -6.17,3.84 a1.84,1.84 0 0 1 -1.09,-0.12000000000000001 c-0.92,-0.46 -1,-1.79 -1.6600000000000001,-2.54 c-1.11,-1.17 -3.22,-0.41000000000000003 -4.57,-1.28 a4.21,4.21 0 0 1 -1.48,-2.71 a13.14,13.14 0 0 1 -0.4,-6.06 c0.79,-3.39 3.83,-5.72 5.76,-8.63 c1.81,-2.7 2.83,-6.12 5.54,-7.91 s6.2,-1.3900000000000001 9.27,-0.48000000000000004 a26.16,26.16 0 0 0 4.34,1.1400000000000001 c2.47,0.30000000000000004 4.95,-0.37000000000000005 7.43,-0.45 a15.9,15.9 0 0 1 9.82,3 a5.37,5.37 0 0 1 1.6,1.62 a8.41,8.41 0 0 1 0.7200000000000001,2.91 a14.78,14.78 0 0 0 1.9300000000000002,5.34 c0.7600000000000001,1.29 1.73,2.45 2.42,3.7800000000000002 a5.86,5.86 0 0 1 0.6600000000000001,4.33 c-0.24000000000000002,0.7500000000000001 -0.7000000000000001,1.4300000000000002 -0.8800000000000001,2.2 c-0.4,1.78 0.77,3.49 1.57,5.13 a9.620000000000001,9.620000000000001 0 0 1 1.07,4.87 a6.1,6.1 0 0 1 -2.19,4.38 a7.91,7.91 0 0 1 -4.63,1.4100000000000001 a16.65,16.65 0 0 1 -5.9,-0.8900000000000001 a4.65,4.65 0 0 0 -2.23,-0.39000000000000007 c-1.07,0.22000000000000003 -0.93,0.8700000000000001 -1.3900000000000001,1.6600000000000001 C317.3899998474121,277.9500018310547 315.0299998474121,278.1600018310547 314.5399998474121,276.79000183105467 z" fill="#3f3d56" id="svg_76"/><path d="M303.2699998474121,394.7400018310547 l11.79,-9.22 l18.54,-18.27 l-6.12,-0.28 a4,4 0 0 0 -1.29,2.5 c-0.09000000000000002,2.23 -5,0.15000000000000002 -7.57,1.4300000000000002 s-15.07,17.3 -17.26,17.19 s-3.93,-1.11 -4.85,0.44000000000000006 l-0.06000000000000001,0.1 a2.58,2.58 0 0 1 -1.4,0.8300000000000001 z" opacity="0.1" id="svg_77"/><path d="M279.5199998474121,394.10000183105467 l5.92,18.91 l0.93,3 l2.8200000000000003,-0.77 l6.22,-1.71 l27.68,-7.6 a24.07,24.07 0 0 0 10,-2.66 a30.17,30.17 0 0 1 17.2,-3.75 c3.66,0.3400000000000001 7.73,-1.24 11.11,-7.48 c0,0 7.67,-22.65 -11.69,-29.14 s-20.29,3.45 -20.29,3.45 l-0.27,0.16000000000000003 c-0.7500000000000001,0.48000000000000004 -2.85,2 -2.93,3.8200000000000003 c-0.09000000000000002,2.23 -5,0.16000000000000003 -7.57,1.4300000000000002 s-15.07,17.3 -17.26,17.19 s-3.93,-1.11 -4.85,0.45 l-0.06000000000000001,0.1 c-0.6800000000000002,0.93 -2.71,1.15 -4.06,1.18 a12,12 0 0 1 -1.26,0 l-0.18000000000000002,0.05000000000000001 l-1.4,0.42000000000000004 z" fill="#65617d" id="svg_78"/><path d="M281.0499998474121,357.3900018310547 l2.8600000000000003,0.45 l1.19,-11.78 s-1.31,-0.2 -2.94,-0.5800000000000001 C282.5899998474121,347.1300018310547 281.6099998474121,353.48000183105466 281.0499998474121,357.3900018310547 z" opacity="0.1" id="svg_79"/><path d="M355.7499998474121,302.3300018310547 s8.49,-2.47 6.39,21.65 a67.44,67.44 0 0 1 -17.81,39.37 s-18.09,7.94 -26.22,6.66 s-14.06,-1.55 -14.06,-1.55 a20.67,20.67 0 0 0 -8.23,-2.19 c-4.5600000000000005,-0.18000000000000002 -14.15,-3 -14.34,-3.93 s2.38,-14.34 1.28,-15.34 c0,0 12.79,0.52 14.07,1.44 s3.11,0.27 4.48,0 s5.57,-3.91 13.88,-0.7100000000000001 c0,0 2.83,0.27 3.93,-0.46 a3.93,3.93 0 0 1 2.8600000000000003,-0.18000000000000002 a7.85,7.85 0 0 0 2,-1 c0.27,-0.36000000000000004 2.47,0 2.47,0 a1,1 0 0 0 1.37,-0.6400000000000001 a6,6 0 0 1 1.28,-2 s2.46,-13.88 7.12,-19.09 a3,3 0 0 0 1,-2.6500000000000004 C336.8399998474121,320.23000183105466 344.7899998474121,299.4000018310547 355.7499998474121,302.3300018310547 z" opacity="0.1" id="svg_80"/><path d="M355.5199998474121,300.4700018310547 s8.5,-2.46 6.4,21.65 a67.39,67.39 0 0 1 -17.81,39.37 s-18.09,7.95 -26.22,6.67 S303.81999984741213,366.5800018310547 303.81999984741213,366.5800018310547 a20.59,20.59 0 0 0 -8.22,-2.19 c-4.57,-0.19000000000000003 -14.16,-3 -14.34,-3.93 s2.37,-14.34 1.28,-15.35 c0,0 12.79,0.53 14.07,1.45 s3.1,0.26 4.47,0 s5.57,-3.91 13.89,-0.7200000000000001 c0,0 2.83,0.28 3.92,-0.45 a4,4 0 0 1 2.8600000000000003,-0.19000000000000003 a8.31,8.31 0 0 0 2,-1 c0.27,-0.37000000000000005 2.46,0 2.46,0 a1,1 0 0 0 1.37,-0.6400000000000001 a6,6 0 0 1 1.28,-2 s2.47,-13.88 7.13,-19.09 a3,3 0 0 0 1,-2.6500000000000004 C336.6199998474121,318.3800018310547 344.5599998474121,297.5800018310547 355.5199998474121,300.4700018310547 z" fill="#3f3d56" id="svg_81"/><path d="M289.5499998474121,391.10000183105467 l12.06,14.6 l0.08000000000000002,-0.08000000000000002 c0.09000000000000002,-0.28 1.28,-3.38 1,-3.5700000000000003 s-2.37,-4.75 -6.57,-6.67 a12.46,12.46 0 0 1 -5.17,-4.7 z" opacity="0.1" id="svg_82"/><path d="M289.7099998474121,416.3700018310547 l1.32,0.7500000000000001 s3.06,-2.45 6.11,-4.92 s6,-4.890000000000001 6,-5 s1.28,-3.38 1,-3.56 s-0.77,-1.36 -1.9300000000000002,-2.83 c-8.18,-2.29 -3,3.39 -2.2800000000000002,3.6500000000000004 c0,0 -9.95,-2.29 -10.5,8.56 A13.42,13.42 0 0 0 289.7099998474121,416.3700018310547 z" opacity="0.1" id="svg_83"/><path d="M299.7999998474121,420.9600018310547 l1.7400000000000002,1 l17.63,0.45 a35.31,35.31 0 0 0 6.24,3 a5.86,5.86 0 0 0 0.8800000000000001,0.19000000000000003 a39,39 0 0 0 4.92,0.09000000000000002 c1.35,0 2.39,-0.09000000000000002 2.39,-0.09000000000000002 s-0.8300000000000001,-22.23 -1.46,-24.57 c-0.30000000000000004,-1.12 -1.78,-0.8800000000000001 -3.24,-0.32000000000000006 a22.09,22.09 0 0 0 -3.16,1.6 s-7.48,0.7300000000000001 -8.67,1.37 s-4.57,-0.37000000000000005 -6.67,0 s-5.85,-2.47 -5.85,-2.47 c-10.23,-3.38 -4.47,2.92 -3.74,3.2 c0,0 -10,-2.29 -10.51,8.56 S299.7999998474121,420.9600018310547 299.7999998474121,420.9600018310547 z" fill="#3f3d56" id="svg_84"/><path d="M325.2899998474121,412.3800018310547 c0.19000000000000003,4.6 3.7800000000000002,10.31 5.92,13.33 c1.35,0 2.39,-0.09000000000000002 2.39,-0.09000000000000002 s-0.8300000000000001,-22.23 -1.46,-24.57 c-0.30000000000000004,-1.12 -1.78,-0.8800000000000001 -3.24,-0.32000000000000006 C327.12999984741214,404.0500018310547 325.12999984741214,408.6600018310547 325.2899998474121,412.3800018310547 z" fill="#565387" id="svg_85"/><path d="M325.2899998474121,412.3800018310547 c0.19000000000000003,4.6 3.7800000000000002,10.31 5.92,13.33 c1.35,0 2.39,-0.09000000000000002 2.39,-0.09000000000000002 s-0.8300000000000001,-22.23 -1.46,-24.57 c-0.30000000000000004,-1.12 -1.78,-0.8800000000000001 -3.24,-0.32000000000000006 C327.12999984741214,404.0500018310547 325.12999984741214,408.6600018310547 325.2899998474121,412.3800018310547 z" opacity="0.1" id="svg_86"/><path d="M322.2699998474121,412.9900018310547 c1.22,4.44 1.2,9.42 3.14,12.44 a5.86,5.86 0 0 0 0.8800000000000001,0.19000000000000003 a39,39 0 0 0 4.92,0.09000000000000002 c1.35,0 2.39,-0.09000000000000002 2.39,-0.09000000000000002 s-0.8300000000000001,-22.23 -1.46,-24.57 c-0.30000000000000004,-1.12 -1.78,-0.8800000000000001 -3.24,-0.32000000000000006 a22.09,22.09 0 0 0 -3.16,1.6 S320.7199998474121,407.3000018310547 322.2699998474121,412.9900018310547 z" opacity="0.05" id="svg_87"/><path d="M261.44999984741213,367.92000183105466 s8.76,2.84 16.18,12.94 z" opacity="0.1" id="svg_88"/><g opacity="0.1" id="svg_89"><path d="M332.6099998474121,258.3000018310547 c0,0.07 0,0.13 -0.05000000000000001,0.2 a5.51,5.51 0 0 1 -0.31000000000000005,0.7600000000000001 A7,7 0 0 1 332.6099998474121,258.3000018310547 z" id="svg_90"/><path d="M283.06999984741213,253.8700018310547 a7.8100000000000005,7.8100000000000005 0 0 1 0.6800000000000002,-1.84 c0,0.15000000000000002 -0.1,0.31000000000000005 -0.14,0.47000000000000003 a13.28,13.28 0 0 0 0.41000000000000003,6.06 a4.24,4.24 0 0 0 1.47,2.71 c1.36,0.8700000000000001 3.47,0.11000000000000001 4.58,1.28 c0.7000000000000001,0.7500000000000001 0.7400000000000001,2.08 1.6600000000000001,2.54 a1.84,1.84 0 0 0 1.09,0.12000000000000001 c2.43,-0.3400000000000001 3.83,-3.08 6.17,-3.84 a6.14,6.14 0 0 1 4.08,0.36000000000000004 a3,3 0 0 1 1.36,0.8700000000000001 c0.78,1 0.23,2.49 0.5900000000000001,3.71 c0.5,1.7000000000000002 2.5300000000000002,2.37 4.28,2.59 s3.73,0.35000000000000003 4.9,1.6800000000000002 a4.41,4.41 0 0 1 0.8700000000000001,3.5300000000000002 a2.77,2.77 0 0 0 0,1.31 c0.48000000000000004,1.37 2.85,1.1600000000000001 3.47,0.08000000000000002 c0.46,-0.79 0.32000000000000006,-1.44 1.3900000000000001,-1.6600000000000001 a4.65,4.65 0 0 1 2.23,0.39000000000000007 a16.65,16.65 0 0 0 5.9,0.8900000000000001 a7.91,7.91 0 0 0 4.63,-1.4100000000000001 a5.18,5.18 0 0 0 1.42,-1.73 a5.76,5.76 0 0 1 -2,3.1 a7.91,7.91 0 0 1 -4.63,1.4100000000000001 a16.65,16.65 0 0 1 -5.9,-0.8900000000000001 a4.65,4.65 0 0 0 -2.23,-0.39000000000000007 c-1.07,0.22000000000000003 -0.93,0.8700000000000001 -1.3800000000000001,1.6600000000000001 c-0.6300000000000001,1.08 -3,1.29 -3.48,-0.08000000000000002 a2.9,2.9 0 0 1 0,-1.31 a4.41,4.41 0 0 0 -0.8700000000000001,-3.5300000000000002 c-1.17,-1.33 -3.14,-1.45 -4.9,-1.6800000000000002 s-3.7800000000000002,-0.8900000000000001 -4.28,-2.59 c-0.36000000000000004,-1.22 0.19000000000000003,-2.71 -0.5900000000000001,-3.71 a3,3 0 0 0 -1.35,-0.8700000000000001 a6.23,6.23 0 0 0 -4.09,-0.36000000000000004 c-2.33,0.7600000000000001 -3.74,3.5 -6.17,3.84 a1.84,1.84 0 0 1 -1.09,-0.12000000000000001 c-0.92,-0.46 -1,-1.79 -1.6600000000000001,-2.54 c-1.11,-1.17 -3.21,-0.41000000000000003 -4.57,-1.28 a4.21,4.21 0 0 1 -1.48,-2.71 A13.14,13.14 0 0 1 283.06999984741213,253.8700018310547 z" id="svg_91"/></g><path d="M334.0299998474121,326.9900018310547 c-1.6800000000000002,2.26 -3.59,4.35 -5.07,6.73 a12.81,12.81 0 0 0 -2.22,8 c1.53,-1.57 2.24,-3.75 3.2,-5.72 c1.6400000000000001,-3.34 4.08,-6.17 6.15,-9.23 c0.39000000000000007,-0.5900000000000001 2.91,-4 1.6400000000000001,-4.14 C336.6699998474121,322.48000183105466 334.5999998474121,326.2200018310547 334.0299998474121,326.9900018310547 z" opacity="0.1" id="svg_92"/><path d="M343.0299998474121,540.9600018310547 c1.21,3.88 2.43,7.77 3.94,11.54 a98.15,98.15 0 0 0 10.21,18.61 a135.06,135.06 0 0 0 8.44,11.06 c3.7600000000000002,4.43 8,8.89 9.28,14.55 c0.77,3.27 0.51,6.68 0.8300000000000001,10 s1.4100000000000001,6.88 4.12,8.88 c1.9300000000000002,1.4300000000000002 4.4,1.86 6.77,2.23 c1.7000000000000002,0.27 3.8200000000000003,0.36000000000000004 4.7,-1.11 a4.27,4.27 0 0 0 0.47000000000000003,-1.94 l0.41000000000000003,-4.890000000000001 c0.08000000000000002,-1.06 0.46,-2.41 1.52,-2.46 s1.59,1.36 2.49,2 c1.2,0.8400000000000001 3,0 3.66,-1.27 a6.17,6.17 0 0 0 0.1,-4.3 a20.37,20.37 0 0 0 -10.47,-13 a30,30 0 0 1 -5.1,-2.6500000000000004 a17.43,17.43 0 0 1 -4,-5.06 c-9.28,-15.28 -18.61,-30.64 -25.16,-47.27 a35,35 0 0 1 -2.59,-9.32 c-0.32000000000000006,-3.27 0.19000000000000003,-6.5600000000000005 0.4,-9.84 a56,56 0 0 0 -1.62,-17.53 a14,14 0 0 0 -1.6700000000000002,-4.26 c-2.7,-4.09 -9,-4.7 -13,-1.8800000000000001 a13.4,13.4 0 0 0 -5.18,9.47 c-0.29000000000000004,3.3200000000000003 1.62,6.76 2.59,9.85 Q338.5799998474121,526.6800018310547 343.0299998474121,540.9600018310547 z" fill="#a1616a" id="svg_93"/><path d="M343.0299998474121,540.9600018310547 c1.21,3.88 2.43,7.77 3.94,11.54 a98.15,98.15 0 0 0 10.21,18.61 a135.06,135.06 0 0 0 8.44,11.06 c3.7600000000000002,4.43 8,8.89 9.28,14.55 c0.77,3.27 0.51,6.68 0.8300000000000001,10 s1.4100000000000001,6.88 4.12,8.88 c1.9300000000000002,1.4300000000000002 4.4,1.86 6.77,2.23 c1.7000000000000002,0.27 3.8200000000000003,0.36000000000000004 4.7,-1.11 a4.27,4.27 0 0 0 0.47000000000000003,-1.94 l0.41000000000000003,-4.890000000000001 c0.08000000000000002,-1.06 0.46,-2.41 1.52,-2.46 s1.59,1.36 2.49,2 c1.2,0.8400000000000001 3,0 3.66,-1.27 a6.17,6.17 0 0 0 0.1,-4.3 a20.37,20.37 0 0 0 -10.47,-13 a30,30 0 0 1 -5.1,-2.6500000000000004 a17.43,17.43 0 0 1 -4,-5.06 c-9.28,-15.28 -18.61,-30.64 -25.16,-47.27 a35,35 0 0 1 -2.59,-9.32 c-0.32000000000000006,-3.27 0.19000000000000003,-6.5600000000000005 0.4,-9.84 a56,56 0 0 0 -1.62,-17.53 a14,14 0 0 0 -1.6700000000000002,-4.26 c-2.7,-4.09 -9,-4.7 -13,-1.8800000000000001 a13.4,13.4 0 0 0 -5.18,9.47 c-0.29000000000000004,3.3200000000000003 1.62,6.76 2.59,9.85 Q338.5799998474121,526.6800018310547 343.0299998474121,540.9600018310547 z" opacity="0.05" id="svg_94"/><path d="M284.7299998474121,704.3400018310547 a13.33,13.33 0 0 0 5.640000000000001,0.6800000000000002 c0.14,-1.56 2.24,-1.9100000000000001 3.8,-1.83 a4.34,4.34 0 0 1 2.17,0.5 c0.39000000000000007,0.25 0.6900000000000002,0.6100000000000001 1.07,0.8700000000000001 a4.63,4.63 0 0 0 2.21,0.5700000000000001 l8.12,0.6800000000000002 c3.62,0.31000000000000005 7.39,0.5900000000000001 10.78,-0.7000000000000001 a3.72,3.72 0 0 0 1.73,-1.1600000000000001 c0.92,-1.32 0,-3.21 -1.27,-4.17 s-2.91,-1.3900000000000001 -4.19,-2.37 c-2.8200000000000003,-2.15 -3.21,-6.17 -4.7,-9.39 a27.71,27.71 0 0 0 -3.89,-5.63 a21.61,21.61 0 0 0 -3.83,-3.93 c-3.26,-2.35 -7,-2.3 -10.83,-2.64 c-2.7,-0.24000000000000002 -5.24,-0.4 -7.18,2 c-2.4,3 -1.44,9 -1.29,12.5 A90.47,90.47 0 0 0 284.7299998474121,704.3400018310547 z" fill="#514e7f" id="svg_95"/><path d="M284.7299998474121,704.3400018310547 a13.33,13.33 0 0 0 5.640000000000001,0.6800000000000002 c0.14,-1.56 2.24,-1.9100000000000001 3.8,-1.83 a4.34,4.34 0 0 1 2.17,0.5 c0.39000000000000007,0.25 0.6900000000000002,0.6100000000000001 1.07,0.8700000000000001 a4.63,4.63 0 0 0 2.21,0.5700000000000001 l8.12,0.6800000000000002 c3.62,0.31000000000000005 7.39,0.5900000000000001 10.78,-0.7000000000000001 a3.72,3.72 0 0 0 1.73,-1.1600000000000001 c0.92,-1.32 0,-3.21 -1.27,-4.17 s-2.91,-1.3900000000000001 -4.19,-2.37 c-2.8200000000000003,-2.15 -3.21,-6.17 -4.7,-9.39 a27.71,27.71 0 0 0 -3.89,-5.63 a21.61,21.61 0 0 0 -3.83,-3.93 c-3.26,-2.35 -7,-2.3 -10.83,-2.64 c-2.7,-0.24000000000000002 -5.24,-0.4 -7.18,2 c-2.4,3 -1.44,9 -1.29,12.5 A90.47,90.47 0 0 0 284.7299998474121,704.3400018310547 z" opacity="0.05" id="svg_96"/><path d="M288.00999984741213,546.3900018310546 c-2.48,0.8 -3.56,3.89 -3.1,6.46 s2,4.79 3.27,7.07 c3.62,6.47 5.18,13.870000000000001 8.22,20.62 c2.27,5 5.34,9.7 7.58,14.76 s3.63,10.77 2.27,16.14 c-0.6600000000000001,2.6100000000000003 -1.94,5 -2.79,7.57 a42,42 0 0 0 -1.6400000000000001,8.55 a162.39,162.39 0 0 0 -0.5900000000000001,29.66 a8.86,8.86 0 0 0 0.7400000000000001,3.5 c0.51,1 1.3900000000000001,2 1,3 c-0.17,0.41000000000000003 -0.54,0.7100000000000001 -0.7200000000000001,1.11 c-0.52,1.12 0.52,2.31 1.47,3.11 a2.59,2.59 0 0 1 -1.59,1.23 a3.7600000000000002,3.7600000000000002 0 0 1 1.6,4.19 c-0.8400000000000001,0.13 -0.8900000000000001,1.42 -0.36000000000000004,2.1 s1.37,1.1 1.75,1.87 a2.6100000000000003,2.6100000000000003 0 0 1 -1.44,3.2800000000000002 a6.85,6.85 0 0 1 -3.92,0.30000000000000004 a43,43 0 0 1 -6.55,-1.44 a4.74,4.74 0 0 1 -3.8200000000000003,-4.9 a72.81,72.81 0 0 1 -0.45,-12.27 c0.35000000000000003,-19.84 0,-39.7 -0.8600000000000001,-59.53 c-0.35000000000000003,-8 -2.75,-15.75 -5.84,-23.11 a121.29,121.29 0 0 0 -5.69,-11 c-4.46,-8.16 -8.4,-17.2 -7.38,-26.45 c0.11000000000000001,-1 0.47000000000000003,-2.19 1.46,-2.35 a2.12,2.12 0 0 1 1.13,0.19000000000000003 a50.81,50.81 0 0 1 5.95,3.2800000000000002 A22.46,22.46 0 0 0 288.00999984741213,546.3900018310546 z" fill="#464353" id="svg_97"/><path d="M288.00999984741213,546.3900018310546 c-2.48,0.8 -3.56,3.89 -3.1,6.46 s2,4.79 3.27,7.07 c3.62,6.47 5.18,13.870000000000001 8.22,20.62 c2.27,5 5.34,9.7 7.58,14.76 s3.63,10.77 2.27,16.14 c-0.6600000000000001,2.6100000000000003 -1.94,5 -2.79,7.57 a42,42 0 0 0 -1.6400000000000001,8.55 a162.39,162.39 0 0 0 -0.5900000000000001,29.66 a8.86,8.86 0 0 0 0.7400000000000001,3.5 c0.51,1 1.3900000000000001,2 1,3 c-0.17,0.41000000000000003 -0.54,0.7100000000000001 -0.7200000000000001,1.11 c-0.52,1.12 0.52,2.31 1.47,3.11 a2.59,2.59 0 0 1 -1.59,1.23 a3.7600000000000002,3.7600000000000002 0 0 1 1.6,4.19 c-0.8400000000000001,0.13 -0.8900000000000001,1.42 -0.36000000000000004,2.1 s1.37,1.1 1.75,1.87 a2.6100000000000003,2.6100000000000003 0 0 1 -1.44,3.2800000000000002 a6.85,6.85 0 0 1 -3.92,0.30000000000000004 a43,43 0 0 1 -6.55,-1.44 a4.74,4.74 0 0 1 -3.8200000000000003,-4.9 a72.81,72.81 0 0 1 -0.45,-12.27 c0.35000000000000003,-19.84 0,-39.7 -0.8600000000000001,-59.53 c-0.35000000000000003,-8 -2.75,-15.75 -5.84,-23.11 a121.29,121.29 0 0 0 -5.69,-11 c-4.46,-8.16 -8.4,-17.2 -7.38,-26.45 c0.11000000000000001,-1 0.47000000000000003,-2.19 1.46,-2.35 a2.12,2.12 0 0 1 1.13,0.19000000000000003 a50.81,50.81 0 0 1 5.95,3.2800000000000002 A22.46,22.46 0 0 0 288.00999984741213,546.3900018310546 z" opacity="0.05" id="svg_98"/><path d="M254.4799998474121,522.2700018310547 a8.620000000000001,8.620000000000001 0 0 0 -4.32,-1.36 c-1.78,0.09000000000000002 -3.3,1.26 -4.69,2.38 a48,48 0 0 0 -4.68,4.1 a24.94,24.94 0 0 0 -5.5600000000000005,24.68 c1.47,4.41 4.16,8.3 6.82,12.11 l5.4,7.76 c8.24,11.83 16.48,23.66 25.11,35.21 a1.34,1.34 0 0 0 0.9400000000000001,1.27 c0.31000000000000005,0.08000000000000002 0.7000000000000001,0.07 0.8900000000000001,0.33000000000000007 a0.9400000000000001,0.9400000000000001 0 0 1 0.11000000000000001,0.53 a7.65,7.65 0 0 1 -0.48000000000000004,2.5 a1.19,1.19 0 0 0 -0.1,0.8600000000000001 c0.28,0.6500000000000001 1.46,0.28 1.84,0.8900000000000001 c0.25,0.4 -0.06000000000000001,0.92 -0.39000000000000007,1.26 s-0.7400000000000001,0.7200000000000001 -0.6800000000000002,1.19 s0.8800000000000001,1 0.8500000000000001,1.58 c0,0.3400000000000001 -0.30000000000000004,0.6000000000000001 -0.51,0.8700000000000001 a2.23,2.23 0 0 0 0.27,2.84 c0.5700000000000001,5.640000000000001 -2.5,11 -3.11,16.62 c-1,8.88 3.05,17.55 3.54,26.46 a6.85,6.85 0 0 0 0.56,2.92 c0.8300000000000001,1.54 3,2.47 2.89,4.22 a16.9,16.9 0 0 1 -0.6100000000000001,2.12 c-0.17,1 0.31000000000000005,2 0.33000000000000007,3 s-0.8700000000000001,2.23 -1.81,1.83 q1.06,3.54 1.8900000000000001,7.14 l18.9,1.56 a16.77,16.77 0 0 0 -0.17,-5.1 c-0.39000000000000007,-1.83 -1.21,-3.5300000000000002 -1.6400000000000001,-5.34 a6.32,6.32 0 0 1 0.7400000000000001,-5.35 a2.09,2.09 0 0 1 -2.08,-1.71 a8.31,8.31 0 0 1 0.05000000000000001,-2.94 c0.5,-4.93 -1.57,-9.79 -1.51,-14.74 c0.06000000000000001,-3.9 1.4300000000000002,-7.65 2.12,-11.48 c1.48,-8.2 -0.06000000000000001,-17.09 3.59,-24.58 c2.21,-4.51 5.27,-9.51 2.79,-13.88 c-1.22,-2.16 -3.38,-3.64 -4.79,-5.68 a23.11,23.11 0 0 1 -2.56,-6.19 c-2.91,-9 -7.62,-17.36 -11.75,-25.92 a27,27 0 0 1 -2.5300000000000002,-6.8100000000000005 a35.7,35.7 0 0 1 -0.32000000000000006,-6.29 a92.72,92.72 0 0 0 -0.6900000000000002,-11.29 a10.74,10.74 0 0 0 -1.37,-4.67 a10.45,10.45 0 0 0 -3,-2.6900000000000004 C268.5599998474121,528.2300018310547 261.1799998474121,525.8000018310547 254.4799998474121,522.2700018310547 z" fill="#464353" id="svg_99"/><path d="M277.12999984741214,711.2700018310547 a13.55,13.55 0 0 0 5.65,0.6700000000000002 c0.14,-1.56 2.23,-1.9100000000000001 3.79,-1.83 a4.34,4.34 0 0 1 2.17,0.5 c0.39000000000000007,0.25 0.6900000000000002,0.6200000000000001 1.08,0.8700000000000001 a4.52,4.52 0 0 0 2.21,0.5700000000000001 l8.11,0.6800000000000002 c3.63,0.31000000000000005 7.39,0.6000000000000001 10.79,-0.7000000000000001 a3.62,3.62 0 0 0 1.7200000000000002,-1.1600000000000001 c0.92,-1.32 0,-3.2 -1.27,-4.16 s-2.91,-1.4 -4.18,-2.38 c-2.83,-2.15 -3.21,-6.16 -4.71,-9.38 a27.07,27.07 0 0 0 -3.88,-5.640000000000001 a21.6,21.6 0 0 0 -3.84,-3.92 c-3.25,-2.36 -7,-2.31 -10.82,-2.6500000000000004 c-2.71,-0.24000000000000002 -5.25,-0.39000000000000007 -7.18,2 c-2.4,3 -1.44,9 -1.3,12.51 A90.61,90.61 0 0 0 277.12999984741214,711.2700018310547 z" fill="#514e7f" id="svg_100"/><circle cx="360.8999938964844" cy="470.82000732421875" r="18.719999313354492" fill="#a1616a" id="svg_101"/><path d="M343.2399998474121,476.38000183105464 c-2.68,2.31 -6.53,2.48 -10.05,2.84 a63.12,63.12 0 0 0 -21.63,6.26 a7.8,7.8 0 0 0 -2.5,1.7200000000000002 a7.06,7.06 0 0 0 -1.27,2.68 a17.51,17.51 0 0 0 -0.7100000000000001,6.51 a18.55,18.55 0 0 0 1.81,6.12 a33,33 0 0 0 11.6,13.23 a8.5,8.5 0 0 0 2.94,1.4100000000000001 c2.46,0.51 4.84,-0.91 7.27,-1.55 a11.88,11.88 0 0 1 6.71,0.21000000000000002 c2,0.6800000000000002 4.19,1.92 6.17,1.09 a6.33,6.33 0 0 0 2.79,-3.18 A108.21,108.21 0 0 0 351.4799998474121,502.5800018310547 a42.85,42.85 0 0 1 1.85,-4.36 c2.17,-4.13 5.92,-7.32 7.79,-11.61 a2.55,2.55 0 0 0 0.18000000000000002,-2.18 a3,3 0 0 0 -1.3800000000000001,-1.05 a32.81,32.81 0 0 1 -7.48,-5.87 c-1.23,-1.18 -3.49,-4.37 -5.26,-4.65 C345.1899998474121,472.52000183105474 344.5899998474121,475.2200018310547 343.2399998474121,476.38000183105464 z" fill="#a1616a" id="svg_102"/><path d="M343.6799998474121,514.4200018310547 c-2.17,1 -4.73,0.5700000000000001 -7.08,0.08000000000000002 c-6.06,-1.27 -12.19,-2.55 -17.8,-5.17 a9.64,9.64 0 0 1 -4.37,-3.36 a11,11 0 0 1 -1.22,-4.19 l-1,-7 c-0.36000000000000004,-2.43 0.26,-4.68 0.32000000000000006,-7.14 a2.07,2.07 0 0 0 -0.41000000000000003,-1.55 a1.6900000000000002,1.6900000000000002 0 0 0 -1.23,-0.39000000000000007 c-2.81,0.05000000000000001 -4.51,3 -6.48,5 a12,12 0 0 1 -4,2.68 c-1.8,0.7400000000000001 -4,1.26 -4.75,3.06 c-0.30000000000000004,0.7500000000000001 -0.26,1.6 -0.5800000000000001,2.35 c-1.26,3 -6.63,2 -8,5 c-0.39000000000000007,0.8400000000000001 -0.36000000000000004,1.8900000000000001 -1,2.55 s-1.84,0.6500000000000001 -2.83,0.81 c-3.91,0.6400000000000001 -5.8,5.15 -9.14,7.28 c-2.81,1.8 -6.43,1.7600000000000002 -9.46,3.16 c-1.6800000000000002,0.78 -3.17,2 -4.95,2.51 s-3.79,0.24000000000000002 -5.7,0.29000000000000004 a1.49,1.49 0 0 0 -1.13,0.37000000000000005 a1.51,1.51 0 0 0 -0.19000000000000003,1.24 a34.46,34.46 0 0 0 21.29,26.68 a7.12,7.12 0 0 1 1.82,0.8800000000000001 c1.7000000000000002,1.27 2,4 3.93,4.9 a4,4 0 0 0 4.09,-0.8800000000000001 a36.68,36.68 0 0 0 3,-3.26 a11.75,11.75 0 0 1 6.59,-3.47 c2.3200000000000003,-0.37000000000000005 4.91,-0.1 6.79,-1.53 a21.05,21.05 0 0 0 2.14,-2.2800000000000002 a13.44,13.44 0 0 1 4.85,-2.9 a49.58,49.58 0 0 1 15.43,-3.39 c4.93,-0.27 10,0.18000000000000002 14.66,-1.42 a8.84,8.84 0 0 0 3.27,-1.85 a9.83,9.83 0 0 0 2.18,-3.79 A29,29 0 0 0 343.6799998474121,514.4200018310547 z" fill="#6c63ff" id="svg_103"/><path d="M319.5499998474121,486.8300018310547 c1.3800000000000001,-0.13 2.77,0 4.16,0 c1.6300000000000001,0 3.24,-0.4 4.87,-0.41000000000000003 a12.11,12.11 0 0 1 11.42,8.69 a2.25,2.25 0 0 1 0.07,1.23 a0.8700000000000001,0.8700000000000001 0 0 1 -0.9400000000000001,0.6400000000000001 a20.73,20.73 0 0 0 -2.11,-4.21 a11.83,11.83 0 0 0 -6.28,-4.38 a16.26,16.26 0 0 0 -7.72,-0.28 c-1.07,0.2 -2.11,0.48000000000000004 -3.15,0.77 l-5,1.3800000000000001 c-0.92,0.25 -1.85,0.5 -2.74,0.8300000000000001 c-0.6900000000000002,0.26 -1.87,1.21 -2.55,1.25 c-0.92,0 -0.18000000000000002,-0.8 0.23,-1.34 a6.65,6.65 0 0 1 3.27,-2.38 A28.32,28.32 0 0 1 319.5499998474121,486.8300018310547 z" fill="#6c63ff" id="svg_104"/><path d="M332.1699998474121,543.0600018310547 c1.21,3.88 2.42,7.77 3.94,11.54 a97.6,97.6 0 0 0 10.21,18.61 a135.06,135.06 0 0 0 8.44,11.06 c3.75,4.43 7.94,8.89 9.28,14.54 c0.77,3.2800000000000002 0.51,6.69 0.8300000000000001,10 s1.4100000000000001,6.88 4.11,8.88 c1.94,1.42 4.41,1.85 6.78,2.23 c1.6900000000000002,0.27 3.81,0.36000000000000004 4.7,-1.11 a4.44,4.44 0 0 0 0.47000000000000003,-1.94 l0.4,-4.890000000000001 c0.09000000000000002,-1.06 0.47000000000000003,-2.41 1.52,-2.46 s1.6,1.36 2.5,2 c1.2,0.8400000000000001 3,0 3.66,-1.27 a6.22,6.22 0 0 0 0.1,-4.3 a20.43,20.43 0 0 0 -10.47,-13 a30.52,30.52 0 0 1 -5.11,-2.6500000000000004 a17.31,17.31 0 0 1 -4,-5.07 c-9.29,-15.27 -18.62,-30.63 -25.16,-47.27 a35.26,35.26 0 0 1 -2.6,-9.31 c-0.31000000000000005,-3.27 0.19000000000000003,-6.5600000000000005 0.41000000000000003,-9.84 a56,56 0 0 0 -1.62,-17.53 a13.79,13.79 0 0 0 -1.6800000000000002,-4.26 c-2.6900000000000004,-4.1 -9,-4.7 -13,-1.8800000000000001 a13.41,13.41 0 0 0 -5.19,9.47 c-0.29000000000000004,3.3200000000000003 1.6300000000000001,6.76 2.59,9.85 Q327.7099998474121,528.7800018310547 332.1699998474121,543.0600018310547 z" fill="#a1616a" id="svg_105"/><path d="M388.12999984741214,457.5800018310547 c0.15000000000000002,-1.56 -1.25,-3 -2.84,-4 a37.6,37.6 0 0 1 -4.8100000000000005,-2.94 c-1.42,-1.23 -2.2,-2.83 -3.62,-4.06 a16.09,16.09 0 0 0 -5.4,-2.6900000000000004 A41.12,41.12 0 0 0 358.5399998474121,441.5800018310547 c-4.45,0 -9,1 -12.35,3.27 a7.3100000000000005,7.3100000000000005 0 0 0 -2.1,2 a8.58,8.58 0 0 0 -1,3.1 a61.18,61.18 0 0 1 -3.23,9.81 c-1.3900000000000001,3.5300000000000002 -2.87,7.19 -6.14,9.92 c-3.5,2.91 -8.85,4.59 -11.16,8.11 a2.6,2.6 0 0 0 -0.51,2.27 c0.33000000000000007,0.8900000000000001 1.3900000000000001,1.5 2.37,2.06 c5.68,3.26 10.58,7.49 13.1,12.54 s2.45,11 -1.1400000000000001,15.65 c-1.32,1.7200000000000002 -3.14,3.7600000000000002 -1.85,5.49 c2,2.63 8.69,1.12 10.25,3.9 c0.49000000000000005,0.8900000000000001 0.2,1.9 0.2,2.87 c0,2.92 2.81,5.51 6.22,6.86 s7.36,1.6700000000000002 11.2,1.84 a9.78,9.78 0 0 0 0.28,-7.25 a2.92,2.92 0 0 1 -0.29000000000000004,-1.6500000000000001 a4,4 0 0 1 1.29,-1.58 c4.1,-3.88 3.23,-9.58 0.77,-14.19 s-6.3,-8.82 -7.73,-13.67 c-0.7100000000000001,-2.41 -0.7100000000000001,-5.12 1.2,-7.12 a24.05,24.05 0 0 1 3.5300000000000002,-2.5700000000000003 a13.34,13.34 0 0 0 4.94,-6.2 c1.15,-3.19 1,-7 4.34,-9.15 c3.21,-2 7.72,-1.42 11.27,-2.79 C384.7299998474121,464.02000183105474 387.9099998474121,459.87000183105465 388.12999984741214,457.5800018310547 z" fill="#464353" id="svg_106"/><rect fill="#919191" stroke="#ffffff" stroke-width="10" stroke-dashoffset="" fill-rule="nonzero" id="svg_116" x="462.8547058105469" y="527" width="92" height="70" style="color: rgb(72, 72, 72);" class="" stroke-opacity="1"/><path fill="#919191" fill-opacity="1" stroke="#ffffff" stroke-opacity="1" stroke-width="10" stroke-dasharray="none" stroke-linejoin="miter" stroke-linecap="butt" stroke-dashoffset="" fill-rule="nonzero" opacity="1" marker-start="" marker-mid="" marker-end="" d="M468.65211241127014,530.4206402384186 L708.7008724112701,531.2735202384185 L749.1090524112701,687.5983102384185 L430.37608241127015,687.5983102384185 L468.65211241127014,530.4206402384186 z" id="svg_119" class=""/><path fill="#919191" fill-opacity="1" stroke="#ffffff" stroke-opacity="1" stroke-width="10" stroke-dasharray="none" stroke-linejoin="miter" stroke-linecap="butt" stroke-dashoffset="" fill-rule="nonzero" opacity="1" marker-start="" marker-mid="" marker-end="" d="M422.31927991731567,546.6881143172582 L739.4132763341088,548.3974803561844 " id="svg_107" class=""/><path fill="#919191" fill-opacity="1" stroke="#ffffff" stroke-opacity="1" stroke-width="10" stroke-dasharray="none" stroke-linejoin="miter" stroke-linecap="butt" stroke-dashoffset="" fill-rule="nonzero" opacity="1" marker-start="" marker-mid="" marker-end="" d="M430.0115871511261,564.6368109566315 L747.1055835679192,565.4915117555986 " class="" id="svg_113"/><path fill="#919191" fill-opacity="1" stroke="#ffffff" stroke-opacity="1" stroke-width="10" stroke-dasharray="none" stroke-linejoin="miter" stroke-linecap="butt" stroke-dashoffset="" fill-rule="nonzero" opacity="1" marker-start="" marker-mid="" marker-end="" d="M446.2509019456665,603.0983473641022 L763.3448983624596,603.9530481630693 " class="" id="svg_112"/><path fill="#919191" fill-opacity="1" stroke="#ffffff" stroke-opacity="1" stroke-width="10" stroke-dasharray="none" stroke-linejoin="miter" stroke-linecap="butt" stroke-dashoffset="" fill-rule="nonzero" opacity="1" marker-start="" marker-mid="" marker-end="" d="M435.99449206216735,583.4402295929535 L753.0884884789605,584.2949303919206 " class="" id="svg_111"/><path fill="#919191" fill-opacity="1" stroke="#ffffff" stroke-opacity="1" stroke-width="10" stroke-dasharray="none" stroke-linejoin="miter" stroke-linecap="butt" stroke-dashoffset="" fill-rule="nonzero" opacity="1" marker-start="" marker-mid="" marker-end="" d="M438.55859495027465,623.6111659390076 L755.6525913670678,624.4658667379747 " class="" id="svg_110"/><path fill="#919191" fill-opacity="1" stroke="#ffffff" stroke-opacity="1" stroke-width="10" stroke-dasharray="none" stroke-linejoin="miter" stroke-linecap="butt" stroke-dashoffset="" fill-rule="nonzero" opacity="1" marker-start="" marker-mid="" marker-end="" d="M429.15688682420654,644.9786850792511 L746.2508832409997,645.8333858782182 " class="" id="svg_109"/><path fill="#919191" fill-opacity="1" stroke="#ffffff" stroke-opacity="1" stroke-width="10" stroke-dasharray="none" stroke-linejoin="miter" stroke-linecap="butt" stroke-dashoffset="" fill-rule="nonzero" opacity="1" marker-start="" marker-mid="" marker-end="" d="M431.7209892354767,667.2009064537629 L748.8149856522698,668.0556072527299 " class="" id="svg_108"/></g></svg>